<?xml version="1.0" encoding="UTF-8"?>
<svg width="288px" height="34px" viewBox="0 0 288 34" version="1.1" xmlns="http://www.w3.org/2000/svg" xmlns:xlink="http://www.w3.org/1999/xlink">
    <!-- Generator: Sketch 52.2 (67145) - http://www.bohemiancoding.com/sketch -->
    <title>分组 4</title>
    <desc>Created with Sketch.</desc>
    <g id="页面-1" stroke="none" stroke-width="1" fill="none" fill-rule="evenodd">
        <g id="1首页" transform="translate(-131.000000, -862.000000)" fill="#454640">
            <g id="分组-4" transform="translate(130.000000, 854.000000)">
                <path d="M6.66,19.532 C5.22,21.836 3.6,23.996 1.8,25.976 L1.404,24.716 C5.508,19.928 8.46,14.564 10.224,8.66 L11.34,9.2 C10.404,12.08 9.252,14.816 7.92,17.336 L7.92,41.456 L6.66,41.456 L6.66,19.532 Z M28.116,23.06 C30.132,27.452 31.932,32.132 33.444,37.136 L32.328,37.604 C30.708,32.276 28.908,27.56 26.964,23.456 L28.116,23.06 Z M16.308,14.852 C15.084,17.84 13.608,20.54 11.952,22.988 L10.908,22.34 C13.716,18.344 15.804,13.736 17.172,8.48 L18.396,8.732 C17.892,10.46 17.352,12.08 16.776,13.628 L32.544,13.628 L32.544,14.456 C31.968,16.76 31.14,19.028 30.132,21.224 L28.944,20.864 C29.916,18.992 30.708,17.012 31.284,14.852 L16.308,14.852 Z M21.384,41.168 L16.524,41.168 L16.272,39.98 C17.892,40.052 19.44,40.088 20.952,40.088 C21.888,40.088 22.392,39.584 22.392,38.648 L22.392,18.56 L23.58,18.56 L23.58,38.972 C23.58,40.412 22.824,41.168 21.384,41.168 Z M16.56,23.24 L17.676,23.564 C16.308,28.676 14.508,33.176 12.348,36.992 L11.16,36.56 C13.248,33.104 15.048,28.64 16.56,23.24 Z M46.44,8.876 C48.024,10.856 49.5,13.016 50.796,15.356 L49.716,15.896 C48.312,13.484 46.836,11.324 45.324,9.452 L46.44,8.876 Z M61.416,8.516 L62.604,8.84 C61.632,11.792 60.372,14.42 58.86,16.724 L67.176,16.724 L67.176,17.948 L54.612,17.948 L54.612,20.576 C54.612,22.484 54.432,24.284 54.108,25.94 L69.264,25.94 L69.264,27.164 L55.368,27.164 C57.204,32.816 62.1,37.172 70.092,40.232 L69.408,41.312 C61.02,37.928 55.908,33.212 54.108,27.164 L53.856,27.164 C53.208,29.756 52.2,31.988 50.796,33.896 C48.384,36.992 44.388,39.404 38.808,41.204 L38.124,40.16 C43.596,38.432 47.592,36.02 50.04,32.888 C51.192,31.232 52.02,29.324 52.596,27.164 L38.736,27.164 L38.736,25.94 L52.848,25.94 C53.172,24.284 53.352,22.484 53.388,20.576 L53.388,17.948 L40.788,17.948 L40.788,16.724 L57.492,16.724 C58.968,14.492 60.264,11.756 61.416,8.516 Z M76.212,9.632 C78.732,11.36 80.856,13.124 82.548,14.924 L81.648,15.788 C80.064,14.096 77.976,12.332 75.348,10.46 L76.212,9.632 Z M75.312,18.128 C77.688,19.892 79.668,21.656 81.252,23.42 L80.388,24.284 C78.912,22.628 76.932,20.864 74.412,18.992 L75.312,18.128 Z M80.928,27.776 L82.008,28.208 C80.352,32.816 78.552,37.136 76.536,41.204 L75.348,40.664 C77.472,36.488 79.344,32.168 80.928,27.776 Z M84.564,15.392 L105.552,15.392 L105.552,16.616 L95.652,16.616 L95.652,26.732 L104.58,26.732 L104.58,27.92 L95.652,27.92 L95.652,38.936 L106.236,38.936 L106.236,40.16 L83.592,40.16 L83.592,38.936 L94.464,38.936 L94.464,27.92 L85.572,27.92 L85.572,26.732 L94.464,26.732 L94.464,16.616 L84.564,16.616 L84.564,15.392 Z M93.348,8.588 C94.356,10.532 95.148,12.296 95.688,13.88 L94.608,14.276 C93.96,12.44 93.132,10.676 92.16,8.948 L93.348,8.588 Z M121.968,15.428 L121.968,39.224 L120.744,39.224 L120.744,36.848 L112.752,36.848 L112.752,40.232 L111.528,40.232 L111.528,15.428 L114.696,15.428 C115.488,13.34 116.064,11.108 116.424,8.768 L117.648,8.948 C117.252,11.288 116.676,13.448 115.884,15.428 L121.968,15.428 Z M112.752,35.696 L120.744,35.696 L120.744,26.516 L112.752,26.516 L112.752,35.696 Z M112.752,25.364 L120.744,25.364 L120.744,16.652 L112.752,16.652 L112.752,25.364 Z M127.908,23.312 C130.788,26.372 133.02,29.036 134.532,31.34 L133.56,32.06 C131.976,29.612 129.744,26.912 126.936,23.96 L127.908,23.312 Z M140.652,15.5 C140.652,26.732 140.472,33.68 140.148,36.344 C139.824,39.368 138.204,40.916 135.252,40.916 C134.604,40.916 133.452,40.88 131.868,40.88 L131.544,39.728 C132.948,39.728 134.172,39.764 135.18,39.764 C137.376,39.764 138.636,38.54 138.96,36.164 C139.248,33.788 139.392,27.308 139.464,16.724 L128.088,16.724 C127.08,19.136 125.856,21.296 124.416,23.24 L123.696,22.268 C126.396,18.596 128.232,14.06 129.204,8.732 L130.392,8.876 C129.96,11.252 129.348,13.448 128.592,15.5 L140.652,15.5 Z" id="你关注的-copy"></path>
                <path d="M158.6,26.588 L158.6,30.404 L162.416,30.404 L162.416,26.588 L158.6,26.588 Z M165.656,30.404 L169.472,30.404 L169.472,26.588 L165.656,26.588 L165.656,30.404 Z M169.472,23.492 L169.472,19.748 L165.656,19.748 L165.656,23.492 L169.472,23.492 Z M162.416,19.748 L158.6,19.748 L158.6,23.492 L162.416,23.492 L162.416,19.748 Z M147.872,10.064 L180.128,10.064 L180.128,13.664 L147.872,13.664 L147.872,10.064 Z M175.484,19.28 L179.156,19.28 L179.156,41.672 L175.484,41.672 L175.484,40.124 L152.588,40.124 L152.588,41.672 L148.916,41.672 L148.916,19.388 L152.588,19.388 L152.588,36.596 L175.484,36.596 L175.484,19.28 Z M155,16.364 L173.072,16.364 L173.072,33.788 L155,33.788 L155,16.364 Z M194.132,17.948 L193.628,18.272 L191.324,15.5 C191.144,15.896 190.964,16.292 190.784,16.652 L190.784,41.708 L187.004,41.708 L187.004,23.096 C186.14,24.284 185.24,25.436 184.304,26.552 L183.044,22.52 C186.14,18.452 188.444,13.664 189.956,8.12 L193.448,9.776 C192.872,11.72 192.188,13.628 191.36,15.464 C194.6,13.736 197.444,11.252 199.82,8.084 L203.636,8.948 L202.448,10.568 L210.836,10.568 L210.836,12.908 C210.188,13.844 209.504,14.672 208.82,15.392 L214.832,15.392 L214.832,24.104 L204.716,24.104 C205.832,25.328 206.732,26.66 207.416,28.1 C209.576,27.128 211.412,25.94 212.924,24.572 L215.372,27.38 C214.4,28.136 213.356,28.82 212.24,29.468 C213.14,32.348 214.724,34.94 216.956,37.172 L214.472,40.268 C212.168,37.424 210.476,34.292 209.396,30.872 C209.108,31.016 208.82,31.124 208.568,31.232 C208.856,32.384 209,33.572 209.072,34.796 C209.072,37.388 208.604,39.224 207.74,40.232 C206.984,41.06 205.616,41.6 203.6,41.852 C202.952,41.888 202.268,41.924 201.512,41.924 L200.396,38.54 C201.476,38.54 202.412,38.504 203.132,38.468 C203.78,38.396 204.32,38.144 204.752,37.712 C205.112,37.208 205.328,36.236 205.328,34.796 L205.328,34.652 C202.412,37.172 198.704,39.26 194.168,40.952 L192.26,37.748 C197.588,36.056 201.8,33.896 204.824,31.268 C204.68,30.764 204.5,30.296 204.32,29.864 C201.764,32.096 198.38,33.932 194.204,35.372 L192.404,32.312 C196.904,31.016 200.432,29.36 202.988,27.344 C202.7,26.912 202.412,26.552 202.124,26.192 C200,27.992 197.228,29.288 193.808,30.008 L192.44,26.948 C195.284,26.372 197.588,25.4 199.316,24.104 L194.132,24.104 L194.132,17.948 Z M204.248,15.392 C204.968,14.78 205.688,14.096 206.444,13.376 L199.928,13.376 C199.208,14.096 198.488,14.744 197.732,15.392 L204.248,15.392 Z M211.196,21.08 L211.196,18.416 L206.552,18.416 C206.336,19.352 206.084,20.252 205.76,21.08 L211.196,21.08 Z M201.944,21.08 C202.376,20.252 202.736,19.352 202.988,18.416 L197.768,18.416 L197.768,21.08 L201.944,21.08 Z M242.12,17.156 C241.976,17.66 241.868,18.128 241.724,18.632 C242.516,22.196 243.488,25.328 244.676,28.028 C245.756,24.86 246.368,21.224 246.512,17.156 L242.12,17.156 Z M242.948,31.88 C241.796,29.504 240.788,26.84 239.924,23.888 C239.384,25.076 238.808,26.192 238.232,27.2 L235.892,24.284 C237.872,20.324 239.204,15.032 239.888,8.408 L243.56,9.056 C243.344,10.64 243.128,12.116 242.876,13.52 L251.876,13.52 L251.876,17.156 L249.896,17.156 C249.68,22.952 248.636,27.884 246.728,31.988 C248.456,34.868 250.508,37.136 252.884,38.756 L250.796,41.816 C248.564,40.16 246.584,38 244.892,35.336 C243.2,37.856 241.112,40.016 238.664,41.78 L236.72,38.612 C239.312,36.884 241.4,34.652 242.948,31.88 Z M225.92,25.112 L229.448,25.544 C229.232,26.084 229.052,26.624 228.872,27.128 L236.108,27.128 L236.108,30.152 C235.496,32.24 234.416,34.112 232.832,35.696 C234.236,36.308 235.604,36.956 236.936,37.676 L234.92,40.628 C233.552,39.8 231.896,38.936 229.952,38.036 C227.576,39.548 224.624,40.736 221.06,41.672 L219.332,38.54 C221.924,37.964 224.156,37.208 226.064,36.344 C224.624,35.732 223.076,35.12 221.492,34.508 C222.356,33.068 223.112,31.664 223.76,30.332 L220.196,30.332 L220.196,27.128 L225.2,27.128 C225.452,26.408 225.704,25.76 225.92,25.112 Z M229.448,34.292 C230.924,33.14 232.04,31.808 232.796,30.332 L227.468,30.332 C227,31.268 226.496,32.168 225.992,33.032 C227.144,33.392 228.296,33.824 229.448,34.292 Z M223.724,8.948 C224.48,10.28 225.164,11.72 225.74,13.268 L223.076,14.456 C222.356,12.728 221.6,11.216 220.808,9.884 L223.724,8.948 Z M233.84,8.912 L236.468,10.172 C235.748,11.684 234.848,13.16 233.732,14.6 L231.104,13.268 C232.256,11.792 233.192,10.352 233.84,8.912 Z M220.268,14.996 L226.964,14.996 L226.964,8.48 L230.42,8.48 L230.42,14.996 L236.54,14.996 L236.54,18.272 L230.42,18.272 L230.42,18.344 C232.292,19.1 234.2,19.964 236.144,20.936 L234.2,23.888 C232.688,22.7 231.428,21.764 230.42,21.08 L230.42,24.86 L226.964,24.86 L226.964,19.208 C225.74,21.656 223.868,23.78 221.276,25.652 L219.404,22.628 C221.744,21.296 223.472,19.856 224.552,18.272 L220.268,18.272 L220.268,14.996 Z M259.94,41.42 L256.88,41.42 L256.088,37.892 C256.988,38.036 257.852,38.144 258.68,38.144 C259.436,38.144 259.832,37.676 259.832,36.776 L259.832,29.504 C258.608,29.936 257.42,30.368 256.196,30.764 L255.224,27.056 C256.772,26.696 258.32,26.264 259.832,25.76 L259.832,18.56 L255.944,18.56 L255.944,14.924 L259.832,14.924 L259.832,8.552 L263.504,8.552 L263.504,14.924 L266.564,14.924 L266.564,18.56 L263.504,18.56 L263.504,24.284 C264.512,23.816 265.484,23.348 266.42,22.844 L266.42,26.516 C265.412,27.02 264.44,27.488 263.504,27.956 L263.504,37.712 C263.504,40.16 262.316,41.42 259.94,41.42 Z M271.316,25.904 C270.884,31.916 269.516,37.208 267.248,41.816 L264.296,39.188 C266.636,34.616 267.824,28.712 267.86,21.512 L267.86,9.56 L287.588,9.56 L287.588,19.1 L281.108,19.1 L281.108,22.484 L288.38,22.484 L288.38,25.904 L281.108,25.904 L281.108,29.36 L286.796,29.36 L286.796,41.744 L283.34,41.744 L283.34,40.268 L275.24,40.268 L275.24,41.744 L271.784,41.744 L271.784,29.36 L277.436,29.36 L277.436,25.904 L271.316,25.904 Z M277.436,19.1 L271.496,19.1 L271.496,21.512 C271.496,21.836 271.46,22.16 271.46,22.484 L277.436,22.484 L277.436,19.1 Z M275.24,36.956 L283.34,36.956 L283.34,32.672 L275.24,32.672 L275.24,36.956 Z M283.916,12.98 L271.496,12.98 L271.496,15.788 L283.916,15.788 L283.916,12.98 Z" id="画像数据-copy"></path>
            </g>
        </g>
    </g>
</svg>