<?xml version="1.0" encoding="UTF-8"?>
<svg width="60px" height="60px" viewBox="0 0 60 60" version="1.1" xmlns="http://www.w3.org/2000/svg" xmlns:xlink="http://www.w3.org/1999/xlink">
    <!-- Generator: Sketch 52.2 (67145) - http://www.bohemiancoding.com/sketch -->
    <title>资产 copy 2</title>
    <desc>Created with Sketch.</desc>
    <g id="页面-1" stroke="none" stroke-width="1" fill="none" fill-rule="evenodd">
        <g id="资产-copy-2">
            <rect id="矩形-copy-32" fill="#FBFBFC" x="0" y="0" width="60" height="60" rx="2"></rect>
            <path d="M24.8395967,27.7274452 C29.6023396,27.7274452 31.128448,25.3143541 33.0634792,20.7454041 C34.9985103,16.1764541 29.3815216,13.7274452 24.8395967,13.7274452 C20.2976719,13.7274452 17.4558191,15.1169948 17.4558191,19.3353416 C17.4558191,23.5536883 20.0768539,27.7274452 24.8395967,27.7274452 Z" id="椭圆形-copy-10" fill="#EDF0F3" transform="translate(25.455819, 20.727445) rotate(166.000000) translate(-25.455819, -20.727445) "></path>
            <g id="292汽车-线性" transform="translate(20.000000, 9.000000)">
                <rect id="矩形" fill="#000000" opacity="0" x="0" y="0" width="18.8235294" height="19"></rect>
                <path d="M18.8290441,10.7709961 L18.8272059,10.7394531 L18.8253676,10.6837891 L18.8235294,10.6448242 C18.8216912,10.600293 18.8180147,10.5539063 18.8125,10.509375 L18.8088235,10.4592773 L18.8051471,10.4295898 C18.747549,9.91871745 18.1824124,9.26622154 17.1097372,8.47210211 C16.1162359,7.76700279 15.3854167,7.34827474 14.9172794,7.21591797 C14.7720588,6.19169922 14.1507353,5.24912109 13.1544118,4.54960938 C12.1323529,3.83154297 10.8033088,3.43632813 9.41176471,3.43632813 C8.02022059,3.43632813 6.69117647,3.83154297 5.66911765,4.54960938 C4.67463235,5.24726563 4.05147059,6.19169922 3.90625,7.2140625 C3.20220588,7.41259766 2.57904412,7.80966797 2.09742647,8.36630859 C1.59191176,8.95263672 1.27941176,9.66513672 1.19301471,10.4333008 L1.18933824,10.4629883 L1.18566176,10.5112305 C1.18198529,10.5557617 1.17830882,10.6021484 1.17463235,10.6466797 L1.17279412,10.6875 L1.17095588,10.7413086 L1.16911765,10.7709961 L1.16911765,12.6839844 C1.16911765,12.7619141 1.17830882,12.8398438 1.19485294,12.9140625 C1.22242647,13.0587891 1.28308824,13.1905273 1.36764706,13.3018555 C1.55698529,13.5671875 1.86580882,13.7397461 2.21323529,13.7397461 L3.04411765,13.7397461 C4.0280053,13.7397461 6.69142866,13.743457 7.70955882,13.7416016 L11.1397059,13.7416016 C12.0396405,13.743457 14.5835442,13.743457 15.8051471,13.743457 L17.7830882,13.743457 C18.1323529,13.743457 18.4411765,13.569043 18.6305147,13.3018555 C18.7150735,13.1905273 18.7738971,13.0606445 18.8014706,12.9177734 C18.8198529,12.8416992 18.8290441,12.7637695 18.8290441,12.6858398 L18.8290441,10.7709961 Z" id="路径" fill="#486CD8" fill-rule="nonzero"></path>
                <path d="M11.7658372,12.9793569 C11.809467,11.724981 12.8311324,10.7200342 14.0891262,10.6875 C15.405293,10.6911149 16.4705882,11.7611301 16.4705882,13.0697298 C16.4705882,13.1167237 16.4705882,13.1601027 16.4669524,13.2070967 C16.4269584,13.3155441 16.394236,13.4276065 16.3687853,13.5396689 C16.1470003,14.6241438 15.1762363,15.4230403 14.0636754,15.4375 C12.7511444,15.3868912 11.7258432,14.2843417 11.7658372,12.9793569 Z" id="路径" fill="#4884ED" fill-rule="nonzero" opacity="0.900000036"></path>
                <path d="M13.6727941,7.07861328 L9.97794118,7.07861328 L9.97794118,4.66650391 C10.8878676,4.75185547 11.75,5.04316406 12.4209559,5.49589844 C13.0569853,5.92636719 13.4963235,6.48300781 13.6727941,7.07861328 Z" id="路径" fill="#FFFFFF" fill-rule="nonzero"></path>
                <path d="M6.38235294,5.50888672 C7.04227941,5.05800781 7.89154412,4.76484375 8.78860294,4.67207031 L8.78860294,7.07861328 L5.14889706,7.07861328 C5.32169118,6.48857422 5.75551471,5.9375 6.38235294,5.50888672 Z" id="路径" fill="#FFFFFF" fill-rule="nonzero"></path>
                <path d="M3.53075055,12.9793569 C3.57441184,11.724981 4.59681372,10.7200342 5.85571425,10.6875 C6.49244139,10.6911149 7.09278413,10.9369292 7.54031235,11.3887938 C7.99147902,11.8370434 8.23889299,12.4371195 8.23525455,13.0697298 C8.23525455,13.1167237 8.23525455,13.1601027 8.23161611,13.2070967 C8.19159326,13.3155441 8.15884729,13.4276065 8.13337821,13.5396689 C7.91143332,14.6241438 6.93996961,15.4230403 5.82660672,15.4375 C4.51676802,15.3868912 3.48708926,14.2843417 3.53075055,12.9793569 Z" id="路径" fill="#4884ED" fill-rule="nonzero" opacity="0.900000036"></path>
            </g>
        </g>
    </g>
</svg>