<?xml version="1.0" encoding="UTF-8"?>
<svg width="60px" height="60px" viewBox="0 0 60 60" version="1.1" xmlns="http://www.w3.org/2000/svg" xmlns:xlink="http://www.w3.org/1999/xlink">
    <!-- Generator: Sketch 52.2 (67145) - http://www.bohemiancoding.com/sketch -->
    <title>行为 copy 2</title>
    <desc>Created with Sketch.</desc>
    <g id="页面-1" stroke="none" stroke-width="1" fill="none" fill-rule="evenodd">
        <g id="行为-copy-2">
            <rect id="矩形-copy-34" fill="#FBFBFC" x="0" y="0" width="60" height="60" rx="2"></rect>
            <path d="M24.6338409,28.9784371 C29.3965838,28.9784371 30.9226922,26.565346 32.8577233,21.996396 C34.7927545,17.4274459 29.1757658,14.9784371 24.6338409,14.9784371 C20.0919161,14.9784371 17.2500633,16.3679867 17.2500633,20.5863334 C17.2500633,24.8046801 19.871098,28.9784371 24.6338409,28.9784371 Z" id="椭圆形-copy-11" fill="#EDF0F3" transform="translate(25.250063, 21.978437) rotate(166.000000) translate(-25.250063, -21.978437) "></path>
            <path d="M34.1656161,25.0588235 L26.3049722,25.0588235 C26.0033122,25.0684849 25.7647059,25.2763182 25.7647059,25.5294118 C25.7647059,25.7825053 26.0033122,25.9903386 26.3049722,26 L34.1656161,26 C34.4672761,25.9903386 34.7058824,25.7825053 34.7058824,25.5294118 C34.7058824,25.2763182 34.4672761,25.0684849 34.1656161,25.0588235 Z" id="路径" fill="#4884ED" fill-rule="nonzero"></path>
            <path d="M35.5624981,10.0000001 L24.438333,10.0000001 C23.7917235,9.99978015 23.1715218,10.2552492 22.7142217,10.7101838 C22.2569216,11.1651184 22,11.7822354 22,12.42572 L22,21.2205096 C22.0004601,22.5607899 23.0923773,23.6470589 24.4391663,23.6470588 L35.5624981,23.6470588 C36.9088267,23.6466009 37.9999978,22.5603319 37.9999977,21.2205096 L37.9999977,12.4298666 C38.0008824,11.7858748 37.7444924,11.1679458 37.2873006,10.7121857 C36.8301088,10.2564256 36.2096177,10.0002196 35.5624981,10.0000001 Z" id="路径" fill="#486CD8" fill-rule="nonzero"></path>
            <path d="M28.5106973,18.4646846 C28.5604359,18.5141638 28.5883889,18.5818766 28.5882347,18.6525097 C28.5880805,18.7231427 28.5598321,18.7907294 28.509878,18.8399851 L27.5447416,19.8048063 C27.4411038,19.9082018 27.2747782,19.9082018 27.1711404,19.8048063 L25.8422343,18.476309 C25.7926434,18.4269715 25.7647059,18.3595011 25.7647059,18.2890739 C25.7647059,18.2186467 25.7926434,18.1511763 25.8422343,18.1018388 L26.8065515,17.1361874 C26.9109247,17.0330356 27.0774181,17.0330356 27.1817913,17.1361874 L28.5106973,18.4646846 Z M32.3382723,14.235179 C31.8226234,14.2309317 31.4079383,13.8096757 31.4117913,13.2940175 C31.4118377,12.9120282 31.6427613,12.567955 31.9962493,12.4231826 C32.3497373,12.2784102 32.7556675,12.3616573 33.0236417,12.6338777 C33.2916159,12.9060981 33.3684754,13.3132907 33.21817,13.6644652 C33.0678646,14.0156397 32.7202106,14.2411329 32.3382723,14.235179 Z M33.7242439,16.4266002 L33.7200588,16.4282667 C33.9494018,16.6282533 34.5169001,16.5365928 34.6399418,16.7074147 C34.9186689,17.114054 34.2482173,17.3448719 33.8514707,17.2398789 C33.4547241,17.134886 32.8637893,16.8107411 32.6177059,16.3016086 C32.6177059,16.3016086 32.2167742,17.0398924 32.2167742,17.5831892 C32.2167742,18.1264861 32.9474911,18.6889483 33.3300084,19.1722492 C33.7125257,19.6555501 33.6288239,20.8813012 33.6288239,21.3029395 C33.6288239,21.5579224 33.4178953,21.7812408 33.2103148,21.763742 C33.0755549,21.7529093 32.9391209,21.6779144 32.8604412,21.3029395 C32.6620679,20.3546699 32.8704854,19.8347048 32.2134261,19.2714092 C31.5563669,18.7081137 31.4550877,18.5481245 31.376408,18.5481245 C31.2977283,18.5481245 31.2692697,19.3414045 31.1068881,19.7630429 C30.9445066,20.1846813 29.5676117,21.5079258 29.2704703,21.5520895 C28.9733288,21.5962532 28.4970655,21.4645954 29.1524507,20.6796481 C29.8078359,19.8947007 30.1853311,19.9713623 30.2849363,18.9664297 C30.320091,18.5964545 30.6088623,17.1857159 30.7210228,16.9190671 C30.9001446,16.4965955 30.8407163,15.7524788 30.8407163,15.7524788 C30.8407163,15.7524788 29.7216231,16.1449524 29.487258,16.4957622 C29.1700281,16.9690638 28.8352208,17.3823694 28.5004136,17.4815294 C28.4158747,17.5056944 28.2334048,17.5806894 28.1262664,17.3707035 C28.0191281,17.1607176 28.9398481,16.0532919 29.2746554,15.7524788 C29.2746554,15.7524788 30.7980284,14.7058824 31.2943802,14.7058824 C31.790732,14.7058824 32.6160319,14.8383735 32.8621152,15.3616717 C33.0136155,15.6833167 33.3626521,16.1099548 33.7242439,16.4266002 Z" id="合并形状" fill="#FFFFFF" fill-rule="nonzero"></path>
        </g>
    </g>
</svg>