<?xml version="1.0" encoding="UTF-8"?>
<svg width="60px" height="60px" viewBox="0 0 60 60" version="1.1" xmlns="http://www.w3.org/2000/svg" xmlns:xlink="http://www.w3.org/1999/xlink">
    <!-- Generator: Sketch 52.2 (67145) - http://www.bohemiancoding.com/sketch -->
    <title>消费 copy 3</title>
    <desc>Created with Sketch.</desc>
    <g id="页面-1" stroke="none" stroke-width="1" fill="none" fill-rule="evenodd">
        <g id="消费-copy-3">
            <rect id="矩形-copy-33" fill="#486CD8" x="0" y="0" width="60" height="60" rx="2"></rect>
            <rect id="矩形-copy-39" fill="#EDF0F3" opacity="0.100000001" transform="translate(22.466934, 23.466934) rotate(62.000000) translate(-22.466934, -23.466934) " x="15.4669341" y="16.4669341" width="14" height="14" rx="3"></rect>
            <g id="账单" transform="translate(20.000000, 11.000000)">
                <rect id="矩形" fill="#000000" opacity="0" x="0" y="0" width="16" height="16"></rect>
                <path d="M13.2042656,8.16829687 L11.9867031,7.12548437 L13.4383281,0.377453125 C13.4831562,0.169046875 13.3258125,9.37499999e-05 13.0868906,9.37499999e-05 L4.576875,9.37499999e-05 C4.33796875,9.37499999e-05 4.10792187,0.169046875 4.06307812,0.377453125 L2.56165625,7.35703125 C2.53590625,7.47678125 2.57698437,7.5834375 2.661875,7.6525625 C2.69838854,7.72070814 2.74726793,7.78146166 2.80601562,7.83171875 L4.014875,8.86709375 L2.56165625,15.6225781 C2.51682812,15.8309687 2.67417187,15.9999062 2.91309375,15.9999062 L11.4231094,15.9999062 C11.6620312,15.9999062 11.8920781,15.8309531 11.9368906,15.6225781 L13.4383437,8.643 C13.4620937,8.53260937 13.4290937,8.43329687 13.3572969,8.36429687 C13.3199766,8.28934326 13.2679295,8.22268215 13.2042656,8.16829687 Z" id="路径" fill="#FFFFFF" fill-rule="nonzero"></path>
                <polygon id="路径" fill="#000000" fill-rule="nonzero" points="5.73146875 3.34375 10.46875 3.34375 10.6944531 2.06376563 5.9571875 2.06376563"></polygon>
                <polygon id="路径" fill="#000000" fill-rule="nonzero" points="5.1395 5.65623437 8.13948437 5.65623437 8.3651875 4.37623437 5.36520312 4.37623437"></polygon>
                <polygon id="路径" fill="#486CD8" fill-rule="nonzero" points="10.7569531 10.3837813 5.8321875 10.3837813 5.60646875 11.6637656 10.53125 11.6637656"></polygon>
                <polygon id="路径" fill="#486CD8" fill-rule="nonzero" points="8.13948437 13.8667813 8.3651875 12.5867813 5.36520312 12.5867813 5.1395 13.8667813"></polygon>
                <path d="M4.9595625,8.28967187 C4.9301201,8.25083774 4.89661795,8.21525611 4.859625,8.18353125 L4.30715625,7.71034375 L11.0507187,7.71034375 C11.0801615,7.74919199 11.1136692,7.78478447 11.1506719,7.81651562 L11.703125,8.28967187 L4.9595625,8.28967187 Z" id="路径" fill="#486CD8" fill-rule="nonzero"></path>
                <polygon id="路径" fill="#FFFFFF" fill-rule="nonzero" points="4.94125 1.05448437 12.2688906 1.05448437 11.05875 6.67998437 3.73110937 6.67998437"></polygon>
                <polygon id="¥" fill="#486CD8" points="6.242 1.716 7.094 1.716 8 3.522 8.906 1.716 9.758 1.716 8.606 3.804 9.374 3.804 9.374 4.2 8.384 4.2 8.378 4.206 8.378 4.704 9.374 4.704 9.374 5.1 8.378 5.1 8.378 6 7.622 6 7.622 5.1 6.632 5.1 6.632 4.704 7.622 4.704 7.622 4.206 7.616 4.2 6.632 4.2 6.632 3.804 7.394 3.804"></polygon>
            </g>
        </g>
    </g>
</svg>