<?xml version="1.0" standalone="no"?>
<!DOCTYPE svg PUBLIC "-//W3C//DTD SVG 1.1//EN" "http://www.w3.org/Graphics/SVG/1.1/DTD/svg11.dtd" >
<!--
2013-9-30: Created.
-->
<svg>
<metadata>
Created by iconfont
</metadata>
<defs>

<font id="iconfont" horiz-adv-x="1024" >
  <font-face
    font-family="iconfont"
    font-weight="500"
    font-stretch="normal"
    units-per-em="1024"
    ascent="896"
    descent="-128"
  />
    <missing-glyph />
    
    <glyph glyph-name="zhanghaoshezhi" unicode="&#58997;" d="M877.714286 896H219.428571a146.285714 146.285714 0 0 1-146.285714-146.285714v-73.142857H36.571429a36.571429 36.571429 0 0 1 0-73.142858H73.142857v-182.857142H36.571429a36.571429 36.571429 0 0 1 0-73.142858H73.142857V164.571429H36.571429a36.571429 36.571429 0 1 1 0-73.142858H73.142857v-73.142857a146.285714 146.285714 0 0 1 146.285714-146.285714h658.285715a146.285714 146.285714 0 0 1 146.285714 146.285714V749.714286a146.285714 146.285714 0 0 1-146.285714 146.285714z m73.142857-877.714286a73.142857 73.142857 0 0 0-73.142857-73.142857H219.428571a73.142857 73.142857 0 0 0-73.142857 73.142857v73.142857h36.571429a36.571429 36.571429 0 1 1 0 73.142858H146.285714V347.428571h36.571429a36.571429 36.571429 0 0 1 0 73.142858H146.285714V603.428571h36.571429a36.571429 36.571429 0 0 1 0 73.142858H146.285714V749.714286a73.142857 73.142857 0 0 0 73.142857 73.142857h658.285715a73.142857 73.142857 0 0 0 73.142857-73.142857v-731.428572zM548.571429 310.857143a219.428571 219.428571 0 0 1-219.428572-219.428572h73.142857a146.285714 146.285714 0 1 0 292.571429 0h73.142857a219.428571 219.428571 0 0 1-219.428571 219.428572z m0 73.142857a146.285714 146.285714 0 1 1-0.073143 292.644571A146.285714 146.285714 0 0 1 548.571429 384z m0 218.843429a72.557714 72.557714 0 1 0 0-145.115429 72.557714 72.557714 0 0 0 0 145.115429z"  horiz-adv-x="1024" />

    
    <glyph glyph-name="zidingyimulu-tubiao" unicode="&#58998;" d="M800.085333-128H224C123.989333-128 42.666667-50.688 42.666667 44.373333V723.626667C42.666667 818.517333 123.989333 895.829333 224 895.829333h167.936c16.64 0 30.208-12.885333 30.208-28.757333a29.525333 29.525333 0 0 0-30.208-28.757333H224c-66.56 0-120.917333-51.541333-120.917333-114.858667v-679.253333c0-63.232 54.272-114.858667 120.917333-114.858667h576.085333c66.645333 0 120.917333 51.626667 120.917334 114.944V492.373333h-238.933334c-39.253333 0-75.946667 14.506667-103.68 40.96a134.314667 134.314667 0 0 0-42.496 98.645334L537.002667 867.413333c0 11.434667 7.253333 21.845333 18.346666 26.282667a31.573333 31.573333 0 0 0 32.597334-5.546667l384-346.026666 0.426666-0.341334 0.597334-0.597333c5.205333-5.12 8.362667-12.117333 8.362666-19.712v-476.757333C981.418667-50.688 900.096-128 800.085333-128zM596.992 800.682667l-0.682667-169.045334a79.104 79.104 0 0 1 25.002667-57.941333c16.213333-15.445333 37.888-23.893333 60.842667-23.893333H875.52l-278.442667 250.88zM739.84 284.928H284.330667a29.525333 29.525333 0 0 0-30.208 28.672c0 15.872 13.482667 28.757333 30.208 28.757333H739.84c16.64 0 30.208-12.8 30.208-28.757333a29.525333 29.525333 0 0 0-30.208-28.672z m0-171.52H284.330667a29.525333 29.525333 0 0 0-30.208 28.672c0 15.872 13.482667 28.757333 30.208 28.757333H739.84c16.64 0 30.208-12.8 30.208-28.757333a29.525333 29.525333 0 0 0-30.208-28.672z"  horiz-adv-x="1024" />

    
    <glyph glyph-name="zidingyimulu-tubiao1" unicode="&#58999;" d="M124.489143 355.474286V738.596571a34.377143 34.377143 0 0 0 34.450286 34.157715h512.950857c19.017143 0 34.523429-15.36 34.523428-34.157715v-383.122285a34.377143 34.377143 0 0 0-34.523428-34.157715h-174.811429a31.085714 31.085714 0 0 1-31.158857-31.085714v-6.290286c0-17.115429 13.897143-31.085714 31.085714-31.085714h209.261715a68.754286 68.754286 0 0 1 69.046857 68.461714V772.681143A68.754286 68.754286 0 0 1 706.267429 841.142857H89.965714a34.377143 34.377143 0 0 1-34.523428-34.157714v-485.668572a68.754286 68.754286 0 0 1 69.046857-68.388571h34.450286c17.188571 0 31.085714 13.897143 31.085714 31.085714v6.290286a31.085714 31.085714 0 0 1-31.085714 31.085714 34.157714 34.157714 0 0 0-34.450286 34.157715zM900.681143 515.072h-34.523429a27.648 27.648 0 0 1-27.648-27.648v-13.165714c0-15.140571 12.361143-27.648 27.648-27.648 19.090286 0 34.523429-15.36 34.523429-34.157715v-383.049142a34.377143 34.377143 0 0 0-34.523429-34.230858h-516.388571a34.377143 34.377143 0 0 0-34.450286 34.230858V412.452571a34.377143 34.377143 0 0 0 34.523429 34.157715h181.686857a27.648 27.648 0 0 1 27.648 27.648v13.165714a27.648 27.648 0 0 1-27.648 27.648H315.318857a68.754286 68.754286 0 0 1-69.046857-68.461714v-451.437715a68.754286 68.754286 0 0 1 69.046857-68.461714h585.362286a68.754286 68.754286 0 0 1 69.046857 68.461714V446.610286a68.754286 68.754286 0 0 1-69.046857 68.461714z"  horiz-adv-x="1024" />

    
    <glyph glyph-name="zidingyimulu-tubiao2" unicode="&#59000;" d="M1066.666667 0a42.666667 42.666667 0 0 1 42.666666 42.666667V725.333333a42.666667 42.666667 0 0 1-42.666666 42.666667h-938.666667A42.666667 42.666667 0 0 1 85.333333 725.333333v-682.666666a42.666667 42.666667 0 0 1 42.666667-42.666667h938.666667z m0-85.333333h-938.666667A128 128 0 0 0 0 42.666667V725.333333A128 128 0 0 0 128 853.333333h938.666667A128 128 0 0 0 1194.666667 725.333333v-682.666666a128 128 0 0 0-128-128zM426.666667 490.666667a64 64 0 1 1-128 0 64 64 0 0 1 128 0z m85.333333 0a149.333333 149.333333 0 1 0-298.666667 0 149.333333 149.333333 0 0 0 298.666667 0z m74.24-433.92a42.666667 42.666667 0 1 0-63.146667 57.173333l233.386667 256a42.666667 42.666667 0 0 0 63.146667 0l150.613333-165.546667a42.666667 42.666667 0 1 0-63.146667-57.173333L788.053333 278.186667 586.24 56.746667z m-301.226667-2.56a42.666667 42.666667 0 0 0-58.026666 62.293333l184.746666 170.666667a42.666667 42.666667 0 0 0 57.6 0l71.68-65.706667a42.666667 42.666667 0 1 0-58.026666-62.72l-42.666667 38.826667-155.306667-143.36z"  horiz-adv-x="1194" />

    
    <glyph glyph-name="bianji" unicode="&#59001;" d="M560.994462 678.045538l224.019692-230.006153L224.019692-128H0v230.006154l560.994462 576.039384z m63.960615 65.693539L754.294154 876.622769a64.039385 64.039385 0 0 0 91.766154 0l134.695384-138.318769a64.039385 64.039385 0 0 0 0-89.324308l-131.702154-135.246769-224.098461 230.006154z m-86.646154-743.660308h421.651692a64.039385 64.039385 0 0 0 0-128.078769H474.348308a37.494154 37.494154 0 0 0-26.466462 64.039385l45.213539 45.292307a64.039385 64.039385 0 0 0 45.371077 18.747077h-0.07877z"  horiz-adv-x="1024" />

    
    <glyph glyph-name="shanchu" unicode="&#59002;" d="M972.725175 787.228059H774.320745L627.191139 896H396.730098L249.679255 787.228059H44.737482c-25.519268 0-44.737482-32.056611-44.737482-57.575878v-44.895008c0-25.519268 19.218214-44.737482 44.816245-44.737482h44.816245v-716.744866c0-25.598031 25.598031-51.196062 51.196062-51.196062h742.342896c25.598031 0 51.196062 25.598031 51.196062 51.196062v716.744866h44.737482c19.218214 0 44.816245 19.218214 44.816245 44.816245v44.816245c0 25.598031-25.598031 57.497116-51.196062 57.497115z m-646.33059-742.342896c0-19.218214-19.218214-32.056611-38.436428-32.056611h-19.218214c-19.139451 0-31.977848 12.838397-31.977848 32.056611V601.583263c0 19.218214 12.838397 38.436428 32.056611 38.436428h25.598031c19.139451 0 38.357665-19.218214 38.357665-38.357665l-6.379817-556.855626z m236.762095 0c0-19.218214-25.598031-32.056611-44.816245-32.056611h-19.218214c-19.139451 0-44.737482 12.838397-44.737481 32.056611V601.583263c0 19.218214 25.598031 38.436428 44.816245 38.436428h25.519267c19.218214 0 44.895008-19.218214 44.895008-38.357665l-6.45858-556.855626z m224.002462 556.6981v-556.6981c0-19.218214-12.838397-32.056611-31.977848-32.056611h-25.598031c-19.218214 0-38.436428 12.838397-38.436428 32.056611V601.583263c0 19.218214 19.218214 38.436428 38.357665 38.436428h25.598031c19.218214 0 32.056611-19.218214 32.056611-38.357665z"  horiz-adv-x="1024" />

    
    <glyph glyph-name="xinjianmulu" unicode="&#59003;" d="M894.025143 702.390857H514.267429a29.037714 29.037714 0 0 0-26.477715 17.042286l-23.698285 51.638857A129.828571 129.828571 0 0 1 345.965714 846.994286H132.242286C60.489143 846.994286 2.194286 788.772571 2.194286 717.019429v-650.752c0-71.753143 58.221714-129.901714 129.974857-129.901715h761.709714c71.753143 0 129.901714 58.148571 129.901714 129.901715V572.342857a129.755429 129.755429 0 0 1-129.828571 130.048zM950.857143 66.267429c0-31.451429-25.453714-56.758857-56.832-56.758858H132.242286a56.832 56.832 0 0 0-56.832 56.758858V717.019429c0 31.451429 25.526857 56.832 56.832 56.832H345.965714c22.162286 0 42.422857-13.019429 51.638857-33.133715l33.28-72.704a66.121143 66.121143 0 0 1 60.196572-38.619428h403.017143c31.451429 0 56.758857-25.526857 56.758857-56.832v-506.294857zM692.662857 355.328H547.401143V500.589714c0 20.114286-16.457143 36.571429-36.571429 36.571429s-36.571429-16.457143-36.571428-36.571429v-145.261714H328.996571c-20.114286 0-36.571429-16.457143-36.571428-36.571429s16.457143-36.571429 36.571428-36.571428h145.261715v-145.261714c0-20.114286 16.457143-36.571429 36.571428-36.571429s36.571429 16.457143 36.571429 36.571429V282.185143H692.662857c20.114286 0 36.571429 16.457143 36.571429 36.571428s-16.457143 36.571429-36.571429 36.571429z"  horiz-adv-x="1024" />

    
    <glyph glyph-name="gerenkongjianicon" unicode="&#59004;" d="M1264.115359 370.573666A255.99744 255.99744 0 0 0 1182.049894-127.999634H404.768524a255.99744 255.99744 0 0 0-80.419767 499.121866 339.452605 339.452605 0 0 0-2.011409 37.265913C322.337348 596.838832 477.764365 749.705874 669.433306 749.705874a348.668513 348.668513 0 0 0 271.83271-129.095852 277.720651 277.720651 0 0 0 62.902228 7.2045c143.760848 0 260.312825-109.164623 260.312825-243.819276 0-4.498241-0.109713-8.996481-0.36571-13.42158zM316.303123-49.225565H1146.502821V-127.999634H316.339694v78.774069zM1146.502821-127.999634v90.037956a226.374879 226.374879 0 0 1 159.778973 65.901056 224.619468 224.619468 0 0 1 66.157053 159.120694H1462.842514C1462.842514 13.054955 1321.239359-127.999634 1146.539392-127.999634zM316.339694-127.999634C141.603155-127.999634 0 13.054955 0 187.060072h90.367096c0-124.268472 101.15556-225.02175 225.936027-225.02175V-127.999634zM1462.842514 187.060072h-91.427657c-0.438853 100.789849-70.87472 188.633542-171.445142 213.831005l-34.267086 7.972492v44.360699c0 122.513061-102.325834 221.803496-228.569143 221.803496a241.259302 241.259302 0 0 1-53.028041-6.655933l-29.732274-7.094787-17.810108 24.42947c-74.422113 102.764687-208.967053 146.869388-332.39439 108.908626-123.390766-37.960763-207.211642-149.209936-207.028787-274.831538v-110.920033l-34.303657-8.411345c-100.387568-25.160891-170.786864-112.748587-171.408572-213.392152H0c0.365711 128.437573 82.102036 243.380423 205.712229 289.277107v44.324129c0.585137 158.169847 102.910971 299.151294 256.216866 352.910756 153.305896 53.759462 324.860751 8.813626 429.490562-112.456018a308.842626 308.842626 0 0 0 45.713829 3.547393c167.861179 0.438853 307.562639-125.073035 319.9968-287.448554 123.902761-46.006397 205.7488-161.3881 205.712228-290.154813zM846.254395 115.819642c-29.439706-28.781426-67.729608-47.981234-111.907453-47.981235-44.141273 0-82.431176 19.199808-114.833137 47.981235-73.580978-41.581298-123.610192-95.925898-123.610193-195.070049h471.03529c0 99.10758-50.029214 150.307068-120.684507 195.070049zM731.421257 91.426743c75.775242 0 136.373493 66.778761 136.373494 146.284251S807.196499 383.995246 731.421257 383.995246s-136.373493-66.778761-136.373493-146.284252c0-82.650602 63.633649-146.284251 136.373493-146.284251z"  horiz-adv-x="1462" />

    
    <glyph glyph-name="fangdachakan" unicode="&#59005;" d="M569.617067 396.4928h-204.8a34.133333 34.133333 0 0 0 0 68.266667h204.8a34.133333 34.133333 0 0 0 0-68.266667z m-102.4-102.4a34.133333 34.133333 0 0 0-34.133334 34.133333v204.8a34.133333 34.133333 0 0 0 68.266667 0v-204.8a34.133333 34.133333 0 0 0-34.133333-34.133333z m479.505066-194.082133l-97.962666 94.139733c-5.597867 5.597867-12.561067 8.533333-19.0464 12.629333a423.389867 423.389867 0 0 1 64.1024 223.8464 427.144533 427.144533 0 0 1-426.666667 426.666667 427.144533 427.144533 0 0 1-426.666667-426.666667 427.144533 427.144533 0 0 1 426.666667-426.666666 423.936 423.936 0 0 1 224.187733 64.3072c4.027733-6.417067 7.031467-13.380267 12.629334-18.978134l97.962666-94.208a102.4 102.4 0 1 1 144.725334 144.930134zM142.9504 430.626133a324.676267 324.676267 0 0 0 324.266667 324.266667 324.676267 324.676267 0 0 0 324.266666-324.266667c0-178.858667-145.476267-324.266667-324.266666-324.266666a324.608 324.608 0 0 0-324.266667 324.266666z"  horiz-adv-x="1024" />

    
    <glyph glyph-name="shangchuan" unicode="&#59006;" d="M476.745387 194.950095h-266.727619c-19.504762 0-35.254857-15.798857-35.254858-35.401143 0-19.553524 15.750095-35.401143 35.254858-35.401142h266.727619c19.504762 0 35.254857 15.847619 35.254857 35.401142a35.303619 35.303619 0 0 1-35.254857 35.401143zM394.484053 80.749714H210.017768c-19.504762 0-35.254857-15.847619-35.254858-35.449904 0-19.553524 15.750095-35.401143 35.254858-35.401143H394.484053c19.504762 0 35.254857 15.847619 35.254857 35.401143a35.303619 35.303619 0 0 1-35.254857 35.449904z m457.094096 470.162286a135.899429 135.899429 0 0 1-115.175619 64.219429v-70.802286c22.576762 0 43.495619-11.702857 55.344761-30.915048l124.440381-126.049524H661.211672l-75.190857-80.262095H435.639101l-75.190857 80.262095h-255.024762L230.156434 513.024a65.340952 65.340952 0 0 0 55.100953 31.305143V615.131429A136.045714 136.045714 0 0 1 170.179291 550.326857L24.381196 387.413333v-349.379047A141.263238 141.263238 0 0 1 165.400625-103.619048h693.199238c77.921524 0 141.019429 63.390476 141.019428 141.604572V387.413333l-148.041142 163.547429z m77.531428-512.926476a70.704762 70.704762 0 0 0-70.509714-70.802286H165.400625a70.704762 70.704762 0 0 0-70.509715 70.802286v278.528H334.50691l75.23962-80.213334h202.069333l75.190857 80.213334h242.054095v-278.528zM265.11872 655.262476h77.433905a18.041905 18.041905 0 0 0 17.993143-18.041905v-156.379428c0-10.044952 8.094476-18.041905 17.993142-18.041905h264.728381a18.041905 18.041905 0 0 1 17.944381 18.041905V637.220571c0 9.898667 8.143238 18.041905 17.993143 18.041905h76.946286c17.408 0 24.673524 22.430476 10.581333 32.670476L520.33853 868.205714a18.090667 18.090667 0 0 1-21.260191 0L254.439863 688.079238c-14.140952-10.386286-6.826667-32.816762 10.727619-32.816762z"  horiz-adv-x="1024" />

    
    <glyph glyph-name="guanbi" unicode="&#59007;" d="M623.988364 384l336.058181-336.058182a52.782545 52.782545 0 0 0 0-74.752l-37.236363-37.236363a52.782545 52.782545 0 0 0-74.752 0L512 271.918545l-336.058182-336.058181a52.782545 52.782545 0 0 0-74.752 0l-37.236363 37.236363a52.782545 52.782545 0 0 0 0 74.752l336.058181 336.058182-336.058181 336.058182a52.782545 52.782545 0 0 0 0 74.752l37.236363 37.236364a52.782545 52.782545 0 0 0 74.752 0L512 496.081455 848.058182 832.046545a52.782545 52.782545 0 0 0 74.752 0l37.236363-37.236363a52.782545 52.782545 0 0 0 0-74.752L624.081455 384z"  horiz-adv-x="1024" />

    
    <glyph glyph-name="yi" unicode="&#59008;" d="M785.066667 896H238.933333C163.84 896 102.4 838.382933 102.4 768v-832.034133C102.4-102.331733 136.533333-128 170.666667-128c13.653333 0 27.306667 6.417067 40.96 12.834133L512 128l300.373333-243.234133c13.653333-12.765867 27.306667-12.765867 40.96-12.765867 34.133333 0 68.266667 25.6 68.266667 64.034133V767.931733C921.6 838.382933 860.16 896 785.066667 896z"  horiz-adv-x="1024" />

    
    <glyph glyph-name="wei" unicode="&#59009;" d="M785.066667 896c75.093333 0 136.533333-57.617067 136.533333-128v-832.034133c0-38.365867-34.133333-63.965867-68.266667-63.965867-13.653333 0-27.306667 0-40.96 12.834133L512 128l-300.373333-243.234133c-13.653333-6.3488-27.306667-12.765867-40.96-12.765867-34.133333 0-68.266667 25.6-68.266667 64.034133V767.931733C102.4 838.382933 163.84 896 238.933333 896h546.133334z m45.8752-954.368a13.653333 13.653333 0 0 1 22.391466 10.513067V827.733333H184.32a13.653333 13.653333 0 0 1-13.653333-13.653333v-861.934933a13.653333 13.653333 0 0 1 22.391466-10.4448l208.008534 173.943466L512 207.803733l110.933333-92.16 208.008534-173.943466z"  horiz-adv-x="1024" />

    
    <glyph glyph-name="yi1" unicode="&#59010;" d="M483.874133 24.3712l-122.333866-24.507733a141.585067 141.585067 0 0 0-168.3456 122.333866l-17.885867 152.3712L101.034667 406.7328a143.36 143.36 0 0 0 65.1264 200.430933l137.693866 63.2832 102.673067 111.274667a143.36 143.36 0 0 0 210.807467 0l102.673066-111.274667 137.693867-63.2832a143.36 143.36 0 0 0 65.1264-200.430933l-74.205867-132.164267-17.885866-152.3712a141.585067 141.585067 0 0 0-168.3456-122.333866l-122.333867 24.507733a143.36 143.36 0 0 1-56.251733 0z"  horiz-adv-x="1024" />

    
    <glyph glyph-name="wei1" unicode="&#59011;" d="M483.880882-22.89455899999996l-160.524674-32.077634a143.325602 143.325602 0 0 0-170.420966 123.80602l-22.454344 191.100802L36.295502 427.693833a143.325602 143.325602 0 0 0 65.110774 200.382842l174.788984 80.330587L406.621557 849.821856a143.325602 143.325602 0 0 0 210.756886 0l130.358047-141.414594 174.857234-80.330587a143.325602 143.325602 0 0 0 65.110774-200.382842l-94.185396-167.759204-22.454344-191.100802a143.325602 143.325602 0 0 0-170.420966-123.80602l-160.524674 32.077634a143.325602 143.325602 0 0 1-56.238236 0z m0 47.229199a143.325602 143.325602 0 0 0 56.238236 0l122.304514-24.501853a141.551094 141.551094 0 0 1 168.305206 122.304513l17.881576 152.33464 74.188061 132.132555a143.325602 143.325602 0 0 1-65.110773 200.382841l-137.660828 63.268016-102.648431 111.247967a143.325602 143.325602 0 0 1-210.756886 0l-102.648431-111.247967-137.660828-63.268016a143.325602 143.325602 0 0 1-65.110773-200.382841l74.188061-132.132555 17.881576-152.33464a141.551094 141.551094 0 0 1 168.305206-122.304513l122.304514 24.501853z"  horiz-adv-x="1024" />

    
    <glyph glyph-name="weixuan" unicode="&#59013;" d="M204.8 896h614.4a204.8 204.8 0 0 0 204.8-204.8v-614.4a204.8 204.8 0 0 0-204.8-204.8H204.8a204.8 204.8 0 0 0-204.8 204.8V691.2a204.8 204.8 0 0 0 204.8 204.8z m0-102.4a102.4 102.4 0 0 1-102.4-102.4v-614.4a102.4 102.4 0 0 1 102.4-102.4h614.4a102.4 102.4 0 0 1 102.4 102.4V691.2a102.4 102.4 0 0 1-102.4 102.4H204.8z"  horiz-adv-x="1024" />

    
    <glyph glyph-name="yixuan" unicode="&#59014;" d="M204.8 896h614.4a204.8 204.8 0 0 0 204.8-204.8v-614.4a204.8 204.8 0 0 0-204.8-204.8H204.8a204.8 204.8 0 0 0-204.8 204.8V691.2a204.8 204.8 0 0 0 204.8 204.8z m197.5296-819.2a63.7952 63.7952 0 0 1 46.4896 20.48l351.1296 372.3264a72.8064 72.8064 0 0 1 0 98.7136 63.1808 63.1808 0 0 1-93.184 0L402.432 245.3504l-85.1968 90.3168a63.1808 63.1808 0 0 1-93.0816 0 72.8064 72.8064 0 0 1 0-98.816L355.7376 97.28c12.9024-13.6192 29.696-20.48 46.592-20.48z"  horiz-adv-x="1024" />

    
    <glyph glyph-name="dianjishouqi" unicode="&#59015;" d="M133.118669-110.172338C146.635334-121.231428 165.681543-127.98976 186.366136-127.98976a85.400746 85.400746 0 0 1 53.657064 17.817422L1079.285207 564.432116l839.262008-674.604454c13.721463-11.059089 32.767672-17.817422 53.657063-17.817422a85.400746 85.400746 0 0 1 53.452265 17.817422 55.295447 55.295447 0 0 1 22.322977 43.00757 55.295447 55.295447 0 0 1-22.322977 43.212368L1132.942271 693.864421a89.087109 89.087109 0 0 1-107.109329 0L132.913871-23.9524c-29.490905-23.756562-29.490905-62.258577 0-86.01514z"  horiz-adv-x="2048" />

    
    <glyph glyph-name="maikefeng" unicode="&#59016;" d="M678.048-128h-332.16c-18.368 0-33.28 15.872-33.28 35.712 0 19.712 14.656 35.712 33.28 35.712h143.936v95.296C343.008 38.72 223.968 166.656 223.968 324.48V395.84c0 6.336 2.368 12.416 6.528 16.896a21.504 21.504 0 0 0 15.744 7.04c12.16 0 22.016-10.624 22.016-23.744V324.48c0-131.52 99.2-238.144 221.568-238.144h44.288c122.368 0 221.568 106.624 221.568 238.08V396.16c0 13.056 9.792 23.68 21.952 23.68h0.64c5.76 0 11.264-2.56 15.36-6.912 4.032-4.352 6.336-10.24 6.336-16.512V324.48c0-157.824-119.04-285.76-265.856-285.76v-95.296h143.936c18.368 0 33.28-15.872 33.28-35.712 0-19.712-14.656-35.712-33.28-35.712z m33.28 690.56v-214.336c0-118.336-89.216-214.272-199.36-214.272-110.08 0-199.36 95.744-199.36 214.272v214.4h398.72zM629.152 419.776c12.48 0 22.4 10.688 22.4 23.808 0 13.248-10.048 23.808-22.4 23.808H394.848c-12.48 0-22.4-10.624-22.4-23.808 0-13.248 10.048-23.808 22.4-23.808H629.088z m82.176 190.528V681.728C711.328 800.256 622.112 896 511.968 896 401.824 896 312.608 800 312.608 681.728v-71.488h398.72z"  horiz-adv-x="1024" />

    
    <glyph glyph-name="dianjizhankai" unicode="&#59017;" d="M1914.857022 878.170326A85.400575 85.400575 0 0 1 1861.609661 895.987712a85.400575 85.400575 0 0 1-53.656956-17.817386L968.692376 203.567221 129.432047 878.170326A85.400575 85.400575 0 0 1 75.775091 895.987712 85.400575 85.400575 0 0 1 22.52773 878.170326 55.295336 55.295336 0 0 1 0 835.162842a55.295336 55.295336 0 0 1 22.322932-43.212281l892.712488-717.815387a89.086931 89.086931 0 0 1 107.109114 0L1915.061819 791.950561c29.490846 23.756515 29.490846 62.258453 0 86.014967z"  horiz-adv-x="2047" />

    
    <glyph glyph-name="sousuo" unicode="&#59018;" d="M1009.386895-43.800297l-209.80296 209.80296a445.776463 445.776463 0 0 1 98.834008 281.077484c0 119.887406-46.785329 232.757012-131.583738 317.555421a449.577771 449.577771 0 0 1-635.03774 0A446.288178 446.288178 0 0 1 0.285829 447.15325c0-120.03361 46.785329-232.757012 131.583738-317.628523a450.308792 450.308792 0 0 1 435.907683-115.720588 48.978391 48.978391 0 0 1-25.805033 94.520985 352.059601 352.059601 0 0 0-340.874983 90.500371A348.84311 348.84311 0 0 0 98.242612 447.15325c0 93.789964 36.551038 181.951069 102.854622 248.254652a351.474784 351.474784 0 0 0 496.509304 0 348.916212 348.916212 0 0 0 102.854622-248.254652c0-93.789964-36.551038-182.024171-102.854622-248.327755a48.978391 48.978391 0 0 1 7.74882-75.587547 49.197698 49.197698 0 0 1 6.286779-7.74882l228.443989-228.517092a48.832187 48.832187 0 0 1 69.300769 0 48.978391 48.978391 0 0 1 0 69.300769z"  horiz-adv-x="1024" />

    
    <glyph glyph-name="gengduo" unicode="&#59019;" d="M102.4 896h1024a102.4 102.4 0 0 0 0-204.8H102.4a102.4 102.4 0 0 0 0 204.8z m0-409.6h1024a102.4 102.4 0 0 0 0-204.8H102.4a102.4 102.4 0 0 0 0 204.8z m409.6-409.6h614.4a102.4 102.4 0 0 0 0-204.8H512a102.4 102.4 0 0 0 0 204.8z"  horiz-adv-x="1228" />

    
    <glyph glyph-name="gengxin" unicode="&#59020;" d="M1023.063897 419.509695c0 12.873554-1.023064 25.576597-2.216639 38.364896v0.852554a333.433575 333.433575 0 0 1-2.72817 35.125193 786.736136 786.736136 0 0 1-9.804363 62.236387c-5.797362 27.53747-11.935745 55.07494-19.69398 82.015623a409.651835 409.651835 0 0 1-41.519343 96.338517 230.700909 230.700909 0 0 1-63.600472 70.93243 324.822787 324.822787 0 0 1-61.554344 34.954683 522.956162 522.956162 0 0 1-78.861176 27.707981A721.515813 721.515813 0 0 1 622.619636 889.948577c-23.956746 2.216638-47.742982 5.030064-71.784983 5.626851a780.512498 780.512498 0 0 1-37.512343 0.170511 492.17899 492.17899 0 0 1-59.678727-1.619851 719.725451 719.725451 0 0 1-60.872302-5.371085c-6.990937-0.852553-14.152384-1.705106-21.143321-2.813426-5.115319-0.596787-10.060128-1.449341-15.175447-2.216639A638.477127 638.477127 0 0 1 257.726847 860.961767a436.763028 436.763028 0 0 1-96.082751-41.604599 231.894483 231.894483 0 0 1-61.128068-50.982684 315.10368 315.10368 0 0 1-40.66679-65.6466 529.435566 529.435566 0 0 1-31.37396-86.875176A847.778949 847.778949 0 0 1 3.83649 474.755146 1019.312662 1019.312662 0 0 1 0.170511 384.384502c0-6.649915-0.255766-13.214575 0-19.608725 0.596787-23.615725 1.449341-47.316705 3.665979-70.76192 4.518532-47.657727 11.935745-95.059687 24.638788-141.182817 8.184511-29.839364 18.244639-58.655663 31.37396-86.789921 11.083192-23.53047 24.212512-45.611599 40.66679-65.6466 17.051065-20.97281 37.938619-37.171322 61.128068-51.067939 30.180385-18.074129 62.662664-31.118194 96.082751-41.604599 32.226513-9.974873 65.049813-17.903618 98.725666-22.677916 5.115319-0.852553 10.060128-1.364085 15.175447-2.216639 6.990937-1.193575 13.981873-1.960872 21.143321-2.813425a934.824635 934.824635 0 0 1 60.787046-5.456341c9.804362-0.767298 19.864491-1.193575 29.754109-1.534596 10.060128-0.255766 19.864491-0.255766 29.924619 0 12.532533-0.255766 25.065065-0.255766 37.512343 0.170511 24.042002 0.596787 48.084003 3.665979 71.870238 5.626851 40.922556 3.580724 81.077814 11.424214 120.465774 21.910618 27.111193 6.990937 53.369833 16.028001 78.861176 27.707981 21.569597 9.804362 42.286641 21.058065 61.554344 34.954683 26.25864 19.267703 47.23145 42.968684 63.600472 70.93243 17.903618 30.521406 31.800236 62.662664 41.519343 96.338517a1253.253273 1253.253273 0 0 1 19.608725 82.015623c4.348022 20.461278 7.076192 41.519343 9.889618 62.236387a337.611086 337.611086 0 0 1 2.72817 35.125193v0.852554a400.700026 400.700026 0 0 1 2.216639 38.364896c0 11.594724 0 23.274704-0.170511 34.954683 0.170511 12.021001 0.170511 23.70098 0.170511 35.295704z m-776.676009-4.433277c69.397834 283.900231 361.312066 175.370203 361.482577 175.370203l19.097193 40.155258c17.903618 27.793236 44.759045 4.433277 44.759045 4.433277l86.107878-141.012307c16.028001-28.901555-20.035001-37.938619-20.035001-37.938619l-158.233883-34.357896c-56.439025-8.184511-39.046939 31.118194-39.046938 31.118193l19.352958 40.240514C323.799723 577.914089 246.387888 415.076418 246.387888 415.076418z m173.494586-233.940611l-18.074129-41.604598c-17.477342-29.157321-44.503279-5.797362-44.503279-5.797362L266.849166 276.536516c-16.795299 29.327832 19.097193 39.38796 19.097193 39.38796l157.807606 38.961683c56.268514 9.804362 40.070003-31.118194 40.070003-31.118193l-18.500406-41.604599c238.88542-81.759856 312.034488 87.130942 312.034489 87.130942-62.065876-292.596274-357.560832-188.158502-357.560832-188.158502z"  horiz-adv-x="1025" />

    
    <glyph glyph-name="gerenzhanghu" unicode="&#59021;" d="M783.147394 828.664863a18649.544289 18649.544289 0 0 0 167.554876-273.97812A5229.615339 5229.615339 0 0 1 1056.402776 384.060228h-163.218445a3864.241854 3864.241854 0 0 0-62.818021 112.265381 4480.677567 4480.677567 0 0 0-87.08999 166.169627c-26.319727 44.870015-48.42348 79.320551-66.251029 103.291377-7.106929 8.974003-18.188919 13.43089-33.306199 13.430891H398.891425c-92.149159-170.626515-166.229855-302.345606-222.061405-395.157276H0a2423.763792 2423.763792 0 0 1 162.555935 242.478767A2769.353253 2769.353253 0 0 1 304.875191 887.025997h389.97765c21.140101 0 38.124456-3.01141 50.892836-9.034231 10.118339-8.913775 22.585578-25.416304 37.401717-49.387131zM443.76144-123.362428L464.359487 604.134102h140.572639l-20.658276-727.556758H443.76144zM2260.966945-127.879544h-181.407364c-32.342548 44.930244-75.044348 113.771086-128.045171 206.582755-52.639454 89.800259-112.385837 202.065639-179.239148 336.796142a1142.890483 1142.890483 0 0 0-77.573933-193.091636 1295.508764 1295.508764 0 0 0-114.855193-184.117633A980.876603 980.876603 0 0 0 1422.108458-127.879544h-203.992942c99.497 80.826256 188.213151 176.649335 266.208681 287.409011 74.923891 110.819904 128.286084 224.530761 160.207035 341.313257 6.685331 20.959417 13.491119 53.844018 20.417362 98.774262 7.227385 41.918833 12.166098 91.305964 14.695683 148.161393 2.890954 53.904247 1.746618 103.291377-3.433008 148.221621h145.089754c3.252323-80.826256 2.409128-152.678508-2.409128-215.556758a1295.508764 1295.508764 0 0 0-31.680038-197.548524h86.126339a3736.437596 3736.437596 0 0 1 182.250558-323.425479A2355.645689 2355.645689 0 0 1 2260.966945-127.879544zM2810.067521 867.692742c25.175391 0 41.437007-4.336431 48.724621-13.009293 5.179626-8.672862 8.552406-28.90954 10.118339-60.770262l7.046701-581.443125h-88.113869l-5.72168 542.415246-1.987531 17.345724a12.286555 12.286555 0 0 1-9.937655 4.336431h-207.666862l8.251264-564.097401H2482.606752L2476.523703 867.692742h333.543818z m70.105635-976.359487h-124.070109l-57.096342 216.339725c-25.416304-72.093166-67.154452-148.58299-125.274673-229.349018h-128.647454c86.788848 124.070109 138.283967 209.172568 154.425127 255.367604 13.43089 43.243854 23.248088 90.824138 29.511822 142.740854 11.624044 112.566522 18.49006 252.47665 20.718504 419.790613h101.062933c-3.131867-265.425715-16.984355-451.470651-41.497235-558.255265h87.330902l83.536525-246.634513zM3108.739207 891.482884l-6.143277-404.131278h359.984002l0.240913-107.808493h-364.019292l-11.202447-395.157276h133.525938L3193.540525-127.879544h-218.387484l10.41948 507.422657h-89.017292l-0.240913 107.808493h93.052582l10.118339 404.131278h109.25397z m157.01494-345.709916h-133.46571C3216.306787 659.423597 3280.630514 768.677567 3325.199388 873.47465h129.490648c-23.18786-56.855429-86.126338-166.169627-188.875661-327.822139z m-111.181273-229.047877h101.18339L3492.814492-127.879544h-133.46571a7440.6531 7440.6531 0 0 0-204.775908 444.604635z m1170.836372 420.091754h-159.00247L4066.909775 888.411246h133.345254a2039.628279 2039.628279 0 0 1 125.093989-151.594401z m-527.177509 28.90954h772.908599c22.52535 0 40.111987-5.962593 52.759911-17.948006 9.817198-11.925185 14.334314-26.922009 13.611575-44.870015l-11.443359-341.313258H3924.951888c-27.704976-224.530761-56.795201-387.688978-87.330902-489.47465h-135.1521l97.268557 476.04376c7.709211 104.797083 7.227385 243.924244-1.505706 417.622397z m715.029291-121.179155c1.445477 11.925185-3.433008 17.948006-14.695683 17.948006h-570.240677l1.626161-197.548524h574.396424l8.913775 179.600518z"  horiz-adv-x="4638" />

    
    <glyph glyph-name="gerenkongjian2" unicode="&#59023;" d="M764.099048 795.062857a16297.691429 16297.691429 0 0 0 141.555809-255.609905 4567.137524 4567.137524 0 0 1 89.478095-159.256381h-150.820571c-6.339048 11.166476-23.844571 46.08-52.614095 104.740572a3944.740571 3944.740571 0 0 0-72.460191 155.062857c-22.137905 41.935238-40.96 74.020571-56.271238 96.402286-6.095238 8.338286-16.14019 12.53181-30.134857 12.531809h-226.255238C313.051429 589.775238 238.299429 466.797714 182.223238 380.196571H18.773333a2433.852952 2433.852952 0 0 1 161.987048 226.255239A2770.748952 2770.748952 0 0 1 324.900571 849.578667h360.350477c19.602286 0 35.108571-2.779429 46.665142-8.387048 8.874667-8.387048 19.602286-23.747048 32.182858-46.08zM404.333714-93.379048L458.605714 585.581714h129.901715L534.235429-93.379048H404.333714z m1679.213715-4.144762h-167.594667c-27.745524 41.935238-63.878095 106.154667-108.348952 192.75581-44.27581 83.821714-94.110476 188.562286-149.406477 314.270476a1133.909333 1133.909333 0 0 0-80.993523-180.175238 1299.407238 1299.407238 0 0 0-115.078096-171.78819 984.990476 984.990476 0 0 0-153.795047-155.062858h-188.562286c95.865905 75.434667 182.51581 164.815238 259.900952 268.190477 74.605714 103.375238 129.511619 209.529905 164.668953 318.464 7.168 19.553524 15.018667 50.273524 23.600762 92.16 8.777143 39.15581 15.701333 85.23581 20.772571 138.337523a837.241905 837.241905 0 0 1 3.998476 138.288762h134.095238c-0.926476-75.434667-5.12-142.482286-12.678095-201.142857a1253.863619 1253.863619 0 0 0-38.863238-184.417524h79.62819a3277.677714 3277.677714 0 0 1 152.81981-301.689904 2044.830476 2044.830476 0 0 1 175.835429-268.190477z m1088.316952 866.986667c16.286476 0 30.086095-2.82819 41.301333-8.435809 11.215238-5.656381 16.237714-21.113905 15.116191-46.421334l-13.994667-168.813714h-118.296381l8.43581 126.585905c2.584381 2.82819 2.389333 5.656381-0.487619 8.435809-2.925714 2.82819-5.705143 4.242286-8.43581 4.242286H2426.587429l-11.995429-135.070476h-114.200381l14.921143 219.428571h395.654095L2689.121524 858.112h122.392381l25.843809-88.600381h334.506667zM2264.502857-18.383238h922.233905l-10.776381-91.526095H2253.726476l10.776381 91.526095z m109.080381 328.216381h759.905524l-7.558095-96.646095H2366.025143l7.558095 96.646095zM2799.274667 213.333333l-48.859429-227.571809h-115.078095L2680.929524 213.333333h118.345143z m126.829714 405.699048a3125.638095 3125.638095 0 0 1 137.99619-129.901714c44.470857-41.935238 94.500571-82.407619 149.991619-121.514667h-180.175238c-68.071619 61.44-148.72381 145.310476-241.859047 251.416381h134.095238z m-192.75581 0a1305.502476 1305.502476 0 0 0-252.586666-251.416381h-196.998095a1407.561143 1407.561143 0 0 1 302.908952 251.416381h146.675809z m996.790858 61.19619h-115.516953L3531.678476 861.96419h107.52l90.940953-181.735619zM4273.347048 849.286095c21.308952 0 36.132571-4.193524 44.665904-12.678095 8.630857-11.264 12.336762-28.184381 11.068953-50.712381l-56.222476-891.904H4065.767619l-29.939809 97.231238h131.462095l50.029714 735.47581a51.492571 51.492571 0 0 1-5.315048 21.162666c-2.82819 2.82819-10.873905 4.193524-24.185904 4.193524h-386.389334l-45.83619 97.231238h517.851428z m-808.472381-131.023238l104.057904-71.875047-56.905142-752.396191h-111.567239l64.414477 824.271238z m569.10019-92.013714c13.653333 0 27.355429-1.755429 41.20381-5.217524 11.361524-6.972952 20.187429-17.456762 26.526476-31.402667 3.559619-13.945905 4.778667-33.158095 3.559619-57.539047l-24.966095-455.094857h-458.020572l31.012572 554.471619 380.68419-5.217524z m-59.587047-94.110476h-224.938667l-8.289524-130.828191h257.706667l5.753904 104.643048c-1.26781 20.918857-11.361524 29.647238-30.23238 26.136381z m-248.198096-350.500572l257.950476-5.266285 8.582096 125.561904H3735.161905l-8.923429-120.295619z"  horiz-adv-x="4339" />

    
    <glyph glyph-name="zidingyimulu-tubiao3" unicode="&#59022;" d="M757.76 412.306286l221.696 210.651428a113.371429 113.371429 0 0 1 0 160.329143l-55.369143 55.296a113.371429 113.371429 0 0 1-158.208 2.048L549.302857 634.953143 338.944 859.721143 337.188571 861.476571A74.093714 74.093714 0 0 1 232.448 861.915429L74.532571 704.146286a74.020571 74.020571 0 0 1-1.243428-103.058286L280.502857 379.611429l-196.022857-186.148572a113.444571 113.444571 0 0 1-32.256-56.32l-33.133714-141.458286a75.044571 75.044571 0 0 1 94.208-89.014857l136.265143 40.155429c17.261714 5.12 33.060571 14.189714 46.08 26.550857l193.243428 183.588571 232.740572-248.685714 1.682285-1.755428a74.093714 74.093714 0 0 1 104.813715-0.438858l157.915428 157.915429a74.093714 74.093714 0 0 1 1.316572 103.058286l-229.668572 245.248zM291.84 70.656L188.928 173.641143a35.986286 35.986286 0 0 1-11.190857 7.387428L689.298286 667.062857l107.739428-107.812571c1.536-1.536 3.584-2.340571 5.412572-3.584l-510.537143-485.010286z m524.288 717.019429a40.228571 40.228571 0 0 0 56.173714-0.731429l55.369143-55.296a40.374857 40.374857 0 0 0-0.731428-57.636571l-73.728-69.997715c-1.462857 2.413714-2.486857 4.900571-4.608 7.021715l-106.422858 106.422857 73.947429 70.217143zM256.585143 512.073143a36.425143 36.425143 0 0 1 25.307428 10.605714l54.857143 54.857143a36.571429 36.571429 0 1 1-51.785143 51.785143l-54.857142-54.857143a36.205714 36.205714 0 0 1-10.166858-23.186286L126.610286 650.971429c-0.585143 0.585143-0.585143 1.170286-0.365715 1.316571l157.915429 157.988571c0.146286 0.073143 0.731429 0.073143 1.462857-0.512l210.651429-225.133714L333.531429 429.933714 256.585143 512.146286z m-163.986286-535.259429a1.828571 1.828571 0 0 0-2.267428 2.194286l33.060571 141.458286a40.521143 40.521143 0 0 0 6.144 13.092571c1.755429-4.388571 4.388571-8.265143 7.68-11.629714l100.937143-100.864a40.082286 40.082286 0 0 0-9.216-4.096l-136.338286-40.155429z m683.812572-19.017143c-0.146286-0.146286-0.731429-0.146286-1.462858 0.438858l-143.506285 153.307428a35.693714 35.693714 0 0 1 16.091428 8.850286l54.857143 54.857143a36.571429 36.571429 0 1 1-51.712 51.712l-54.857143-54.857143a36.205714 36.205714 0 0 1-8.338285-13.604572l-45.568 48.786286 162.742857 154.624 229.229714-244.882286c0.512-0.585143 0.512-1.170286 0.365714-1.316571l-157.842285-157.988571z"  horiz-adv-x="1024" />

    
    <glyph glyph-name="yang" unicode="&#59024;" d="M288.5632 641.4336l467.39456-379.45344a81.92 81.92 0 0 0-20.93056-139.59168L194.9696-95.76448a81.92 81.92 0 0 0-112.0256 85.8112L155.648 587.73504a81.92 81.92 0 0 0 132.95616 53.69856zM266.24 240.64c0 180.96128 137.54368 327.68 307.2 327.68 169.65632 0 307.2-146.71872 307.2-327.68H266.24zM573.44 711.68m-184.32 0a184.32 184.32 0 1 1 368.64 0 184.32 184.32 0 1 1-368.64 0ZM716.8 281.6m20.48 0l204.8 0q20.48 0 20.48-20.48l0 0q0-20.48-20.48-20.48l-204.8 0q-20.48 0-20.48 20.48l0 0q0 20.48 20.48 20.48ZM716.8 363.52m20.48 0l163.84 0q20.48 0 20.48-20.48l0 0q0-20.48-20.48-20.48l-163.84 0q-20.48 0-20.48 20.48l0 0q0 20.48 20.48 20.48ZM716.8 445.44m20.48 0l81.92 0q20.48 0 20.48-20.48l0 0q0-20.48-20.48-20.48l-81.92 0q-20.48 0-20.48 20.48l0 0q0 20.48 20.48 20.48Z"  horiz-adv-x="1024" />

    
    <glyph glyph-name="yin" unicode="&#59025;" d="M288.5632 641.4336l467.39456-379.45344a81.92 81.92 0 0 0-20.93056-139.59168L194.9696-95.76448a81.92 81.92 0 0 0-112.0256 85.8112L155.648 587.73504a81.92 81.92 0 0 0 132.95616 53.69856zM573.44 711.68m-184.32 0a184.32 184.32 0 1 1 368.64 0 184.32 184.32 0 1 1-368.64 0ZM266.24 240.64c0 180.96128 137.54368 327.68 307.2 327.68 169.65632 0 307.2-146.71872 307.2-327.68H266.24zM716.8 281.6m20.48 0l204.8 0q20.48 0 20.48-20.48l0 0q0-20.48-20.48-20.48l-204.8 0q-20.48 0-20.48 20.48l0 0q0 20.48 20.48 20.48ZM716.8 363.52m20.48 0l163.84 0q20.48 0 20.48-20.48l0 0q0-20.48-20.48-20.48l-163.84 0q-20.48 0-20.48 20.48l0 0q0 20.48 20.48 20.48ZM716.8 445.44m20.48 0l81.92 0q20.48 0 20.48-20.48l0 0q0-20.48-20.48-20.48l-81.92 0q-20.48 0-20.48 20.48l0 0q0 20.48 20.48 20.48Z"  horiz-adv-x="1024" />

    
    <glyph glyph-name="yang1" unicode="&#59026;" d="M407.04 781.696C111.36 707.84 53.888 534.4 4.48 220.8c-49.408-313.728 337.28-378.88 619.328-308.48 282.048 70.272 436.992 200.576 371.712 462.528C930.24 636.8 702.848 855.424 407.04 781.696zM989.696 830.4L634.88 896 287.04 830.4 256 825.856v-424c0-25.472 6.528-50.752 19.712-75.904 13.056-25.216 30.208-49.536 51.392-73.216 21.12-23.616 45.248-46.016 72.256-67.072 26.944-21.12 54.4-39.936 82.432-56.448 27.968-16.512 54.912-30.272 80.896-41.216 25.984-10.88 48.832-18.368 68.48-22.464l8.32-1.536 9.088 1.536c19.2 4.096 41.472 11.52 66.944 22.464 25.408 10.944 51.648 24.704 78.656 41.216a759.04 759.04 0 0 1 79.744 56.448c26.24 21.12 49.6 43.52 70.016 67.072 20.416 23.68 36.864 48 49.536 73.216 12.544 25.152 18.88 50.432 18.88 75.904V825.856l-22.656 4.544zM936.704 390.208c0-19.008-4.672-37.824-14.144-56.32a238.08 238.08 0 0 0-37.888-53.44c-15.872-17.152-34.048-33.28-54.592-48.192a607.104 607.104 0 0 0-131.712-72.64c-22.784-8.96-43.904-15.616-63.36-19.968v370.56h-303.36V770.56l299.2 49.792 4.224-0.768v-309.376h301.632v-120zM813.248 586.432l-189.44-162.176-93.056 79.616a30.592 30.592 0 0 1-19.84 7.04 30.656 30.656 0 0 1-19.776-7.04 21.504 21.504 0 0 1 0-33.728l112.768-96.576a30.72 30.72 0 0 1 19.84-7.04c7.488 0 14.656 2.56 19.84 7.04l209.344 179.2a21.504 21.504 0 0 1-0.064 33.728 30.528 30.528 0 0 1-19.84 6.976 30.528 30.528 0 0 1-19.84-7.04"  horiz-adv-x="1024" />

    
    <glyph glyph-name="yin1" unicode="&#59027;" d="M407.04 781.696C111.36 707.84 53.888 534.4 4.48 220.8c-49.408-313.728 337.28-378.88 619.328-308.48 282.048 70.272 436.992 200.576 371.712 462.528C930.24 636.8 702.848 855.424 407.04 781.696zM989.696 830.4L634.88 896 287.04 830.4 256 825.856v-424c0-25.472 6.528-50.752 19.712-75.904 13.056-25.216 30.208-49.536 51.392-73.216 21.12-23.616 45.248-46.016 72.256-67.072 26.944-21.12 54.4-39.936 82.432-56.448 27.968-16.512 54.912-30.272 80.896-41.216 25.984-10.88 48.832-18.368 68.48-22.464l8.32-1.536 9.088 1.536c19.2 4.096 41.472 11.52 66.944 22.464 25.408 10.944 51.648 24.704 78.656 41.216a759.04 759.04 0 0 1 79.744 56.448c26.24 21.12 49.6 43.52 70.016 67.072 20.416 23.68 36.864 48 49.536 73.216 12.544 25.152 18.88 50.432 18.88 75.904V825.856l-22.656 4.544zM936.704 390.208c0-19.008-4.672-37.824-14.144-56.32a238.08 238.08 0 0 0-37.888-53.44c-15.872-17.152-34.048-33.28-54.592-48.192a607.104 607.104 0 0 0-131.712-72.64c-22.784-8.96-43.904-15.616-63.36-19.968v370.56h-303.36V770.56l299.2 49.792 4.224-0.768v-309.376h301.632v-120zM813.248 586.432l-189.44-162.176-93.056 79.616a30.592 30.592 0 0 1-19.84 7.04 30.656 30.656 0 0 1-19.776-7.04 21.504 21.504 0 0 1 0-33.728l112.768-96.576a30.72 30.72 0 0 1 19.84-7.04c7.488 0 14.656 2.56 19.84 7.04l209.344 179.2a21.504 21.504 0 0 1-0.064 33.728 30.528 30.528 0 0 1-19.84 6.976 30.528 30.528 0 0 1-19.84-7.04"  horiz-adv-x="1024" />

    
    <glyph glyph-name="yang2" unicode="&#59028;" d="M666.210747 842.101711m75.906138-142.758685l202.416371-380.689825q75.906139-142.758684-66.852545-218.664823l-380.689826-202.416371q-142.758684-75.906139-218.664823 66.852546l-202.416371 380.689825q-75.906139 142.758684 66.852546 218.664823l380.689825 202.416371q142.758684 75.906139 218.664823-66.852546ZM700.631579 60.631579a27.432421 27.432421 0 0 0-20.210526 8.08421l-148.210527 161.684211c-6.736842 6.736842-8.084211 16.168421-6.736842 25.6l94.31579 350.315789A25.977263 25.977263 0 0 0 645.389474 626.526316h107.789473c12.126316 0 22.905263-8.084211 25.6-20.210527l94.31579-350.315789c2.694737-9.431579 0-18.863158-6.736842-25.6l-148.210527-161.684211c-2.694737-5.389474-9.431579-8.084211-17.515789-8.08421zM768 680.421053h-134.736842c-10.778947 0-21.557895 6.736842-25.6 17.515789l-53.894737 134.736842a28.941474 28.941474 0 0 0 2.694737 25.6c5.389474 6.736842 13.473684 10.778947 22.905263 10.778948h242.526316c9.431579 0 17.515789-4.042105 22.905263-12.126316 5.389474-6.736842 5.389474-16.168421 2.694737-25.6l-53.894737-134.736842a28.564211 28.564211 0 0 0-25.6-16.168421z"  horiz-adv-x="1024" />

    
    <glyph glyph-name="yin2" unicode="&#59029;" d="M666.210747 842.101711m75.906138-142.758685l202.416371-380.689825q75.906139-142.758684-66.852545-218.664823l-380.689826-202.416371q-142.758684-75.906139-218.664823 66.852546l-202.416371 380.689825q-75.906139 142.758684 66.852546 218.664823l380.689825 202.416371q142.758684 75.906139 218.664823-66.852546ZM700.631579 60.631579a27.432421 27.432421 0 0 0-20.210526 8.08421l-148.210527 161.684211c-6.736842 6.736842-8.084211 16.168421-6.736842 25.6l94.31579 350.315789A25.977263 25.977263 0 0 0 645.389474 626.526316h107.789473c12.126316 0 22.905263-8.084211 25.6-20.210527l94.31579-350.315789c2.694737-9.431579 0-18.863158-6.736842-25.6l-148.210527-161.684211c-2.694737-5.389474-9.431579-8.084211-17.515789-8.08421zM768 680.421053h-134.736842c-10.778947 0-21.557895 6.736842-25.6 17.515789l-53.894737 134.736842a28.941474 28.941474 0 0 0 2.694737 25.6c5.389474 6.736842 13.473684 10.778947 22.905263 10.778948h242.526316c9.431579 0 17.515789-4.042105 22.905263-12.126316 5.389474-6.736842 5.389474-16.168421 2.694737-25.6l-53.894737-134.736842a28.564211 28.564211 0 0 0-25.6-16.168421z"  horiz-adv-x="1024" />

    
    <glyph glyph-name="xinyongyang" unicode="&#59030;" d="M112.747789 465.003789l613.861053 275.833264a107.789474 107.789474 0 0 0 151.552-107.681685l-57.23621-654.120421a107.789474 107.789474 0 0 0-167.936-79.76421L96.363789 277.611789a107.789474 107.789474 0 0 0 16.384 187.445895zM1163.479579 254.814316h-599.848421a76.907789 76.907789 0 0 0-76.90779 76.907789V666.408421h753.664v-334.632421c0-42.469053-34.438737-76.907789-76.907789-76.907789zM963.530105 454.763789l-30.72-107.627789h184.535579l30.773895 107.627789zM486.723368 808.528842c0 42.469053 34.492632 76.907789 76.90779 76.90779h599.848421c42.469053 0 76.907789-34.438737 76.907789-76.90779V731.621053H486.723368V808.528842z"  horiz-adv-x="1293" />

    
    <glyph glyph-name="zichanyin" unicode="&#59031;" d="M407.04 781.696C111.36 707.84 53.888 534.4 4.48 220.8c-49.408-313.728 337.28-378.88 619.328-308.48 282.048 70.272 436.992 200.576 371.712 462.528C930.24 636.8 702.848 855.424 407.04 781.696zM1333.056 398.656l-0.128 2.048-0.128 3.52-0.064 2.56a107.52 107.52 0 0 1-0.768 8.64l-0.192 3.2-0.256 1.92c-3.648 32.64-39.872 74.432-108.48 125.248-63.616 45.12-110.4 71.936-140.352 80.384-9.28 65.536-49.024 125.888-112.832 170.624C904.448 842.752 819.456 868.096 730.368 868.096S556.288 842.752 490.816 796.8c-63.616-44.608-103.552-105.088-112.832-170.496a237.824 237.824 0 0 1-115.776-73.728 243.2 243.2 0 0 1-57.856-132.288l-0.256-1.92-0.192-3.072-0.704-8.704-0.128-2.56-0.128-3.456-0.128-1.92v-122.432c0-4.992 0.64-9.984 1.664-14.72a59.328 59.328 0 0 1 11.072-24.832c12.096-16.96 31.872-28.032 54.08-28.032h53.184c62.976 0 233.408-0.192 298.624-0.128h219.52l298.56-0.064h126.592c22.4 0 42.112 11.136 54.272 28.224a58.88 58.88 0 0 1 10.88 24.576 63.232 63.232 0 0 1 1.792 14.848V398.72zM881.024 257.28a152.576 152.576 0 0 0 148.672 146.752 152.832 152.832 0 0 0 152.448-152.512c0-3.008 0-5.76-0.256-8.768a171.52 171.52 0 0 1-6.272-21.312 153.344 153.344 0 0 0-147.52-121.472 153.088 153.088 0 0 0-147.072 157.376zM1003.072 634.944h-236.48V789.312c58.24-5.44 113.408-24.064 156.352-53.056 40.704-27.52 68.8-63.168 80.128-101.312zM536.448 735.424c42.24 28.864 96.64 47.616 154.048 53.568V634.88h-232.96c11.072 37.76 38.848 73.024 78.912 100.48zM353.92 257.28a152.64 152.64 0 0 0 148.864 146.752c40.704-0.256 79.168-16 107.776-44.928a149.76 149.76 0 0 0 44.48-107.52c0-3.072 0-5.824-0.192-8.832-2.56-6.976-4.672-14.08-6.336-21.312a153.408 153.408 0 0 0-147.584-121.472A152.96 152.96 0 0 0 353.92 257.344z"  horiz-adv-x="1344" />

    
    <glyph glyph-name="xiaofeiyang" unicode="&#59032;" d="M578.381152 749.711072m68.676982-129.16262l183.138622-344.433651q68.676983-129.162619-60.485637-197.839602l-344.433651-183.138621q-129.162619-68.676983-197.839602 60.485636l-183.138622 344.433652q-68.676983 129.162619 60.485637 197.839602l344.433651 183.138621q129.162619 68.676983 197.839602-60.485637ZM960.804571 497.712762l-59.343238 50.858667L972.214857 877.616762C974.409143 887.710476 966.753524 896 955.099429 896h-414.96381c-11.654095 0-22.918095-8.240762-25.063619-18.383238l-73.191619-340.358095a14.140952 14.140952 0 0 1 4.87619-14.433524 30.378667 30.378667 0 0 1 7.021715-8.728381l58.953143-50.468572-70.851048-329.435428c-2.194286-10.142476 5.461333-18.383238 17.115429-18.383238h414.963809c11.654095 0 22.918095 8.240762 25.063619 18.383238l73.191619 340.358095a14.140952 14.140952 0 0 1-3.900952 13.604572 30.378667 30.378667 0 0 1-7.509334 9.557333zM596.406857 732.94019h231.033905l10.971428 62.415239h-230.985142zM567.588571 620.202667h146.285715l10.971428 62.415238h-146.285714zM841.48419 389.656381h-240.15238l-11.020191-62.415238h240.152381zM713.874286 219.818667l10.971428 62.415238h-146.285714l-11.02019-62.415238zM558.811429 491.76381a33.401905 33.401905 0 0 1-4.876191 5.168761l-26.965333 23.113143h328.850285c1.462857-1.950476 3.072-3.657143 4.876191-5.217524l26.916571-23.06438H558.811429zM557.884952 844.604952h357.327238l-59.001904-274.334476H498.834286zM621.32419 812.324571h41.545143L707.047619 724.260571l44.178286 88.064h41.545143l-56.173715-101.814857h37.449143V691.2h-48.274286l-0.292571-0.292571v-24.283429h48.566857V647.314286h-48.566857V603.428571h-36.864v43.885715h-48.274286v19.309714h48.274286v24.283429l-0.292571 0.292571h-47.981715v19.309714h37.156572z"  horiz-adv-x="1024" />

    
    <glyph glyph-name="gerenxinxifumianyin" unicode="&#59033;" d="M607.300209 793.596625m72.110832-135.62075l192.295552-361.655334q72.110832-135.62075-63.509918-207.731582l-361.655334-192.295552q-135.62075-72.110832-207.731582 63.509918l-192.295552 361.655334q-72.110832 135.62075 63.509918 207.731582l361.655334 192.295552q135.62075 72.110832 207.731582-63.509918ZM788.1728 261.632h0.3072a82.432 82.432 0 0 0 59.5968 86.8352V786.0736c0 33.1264-26.8288 59.9552-59.9552 59.9552h-219.5968c-66.1504 0-128.9216-52.8896-140.1344-118.1696L386.56 484.2496c-13.9776-81.6128 41.6768-147.712 124.416-147.712h145.1008a44.7488 44.7488 0 0 1-17.7664-35.6864v-99.072a74.9056 74.9056 0 1 1 149.8624 0v59.8016zM997.9904 396.4928a60.0064 60.0064 0 0 0-119.9104 0v389.632a60.0064 60.0064 0 0 0 119.9104 0v-389.632z"  horiz-adv-x="1024" />

    
    <glyph glyph-name="fumianyang" unicode="&#59034;" d="M607.300209 793.596625m72.110832-135.62075l192.295552-361.655334q72.110832-135.62075-63.509918-207.731582l-361.655334-192.295552q-135.62075-72.110832-207.731582 63.509918l-192.295552 361.655334q-72.110832 135.62075 63.509918 207.731582l361.655334 192.295552q135.62075 72.110832 207.731582-63.509918ZM788.1728 261.632h0.3072a82.432 82.432 0 0 0 59.5968 86.8352V786.0736c0 33.1264-26.8288 59.9552-59.9552 59.9552h-219.5968c-66.1504 0-128.9216-52.8896-140.1344-118.1696L386.56 484.2496c-13.9776-81.6128 41.6768-147.712 124.416-147.712h145.1008a44.7488 44.7488 0 0 1-17.7664-35.6864v-99.072a74.9056 74.9056 0 1 1 149.8624 0v59.8016zM997.9904 396.4928a60.0064 60.0064 0 0 0-119.9104 0v389.632a60.0064 60.0064 0 0 0 119.9104 0v-389.632z"  horiz-adv-x="1024" />

    
    <glyph glyph-name="yiliaoyang" unicode="&#59035;" d="M26.624 8.515368L232.663579 773.443368a107.789474 107.789474 0 0 0 178.930526 49.529264l551.289263-532.372211a107.789474 107.789474 0 0 0-43.223579-180.547368L162.384842-122.610526a107.789474 107.789474 0 0 0-135.760842 131.072zM646.736842 842.105263m53.894737 0l161.68421 0q53.894737 0 53.894737-53.894737l0-53.894737q0-53.894737-53.894737-53.894736l-161.68421 0q-53.894737 0-53.894737 53.894736l0 53.894737q0 53.894737 53.894737 53.894737ZM431.157895 734.315789m107.789473 0l485.052632 0q107.789474 0 107.789474-107.789473l0-377.263158q0-107.789474-107.789474-107.789474l-485.052632 0q-107.789474 0-107.789473 107.789474l0 377.263158q0 107.789474 107.789473 107.789473ZM888.778105 493.837474h-51.361684v51.415579A27.486316 27.486316 0 0 1 810.037895 572.631579H752.909474a27.486316 27.486316 0 0 1-27.378527-27.378526v-51.415579h-51.361684A27.486316 27.486316 0 0 1 646.736842 466.458947v-57.128421c0-15.090526 12.341895-27.378526 27.432421-27.378526h51.361684v-51.415579c0-15.090526 12.341895-27.378526 27.378527-27.378526h57.128421a27.486316 27.486316 0 0 1 27.378526 27.378526v51.415579h51.361684A27.486316 27.486316 0 0 1 916.210526 409.330526V466.458947a27.486316 27.486316 0 0 1-27.432421 27.378527z"  horiz-adv-x="1131" />

    
    <glyph glyph-name="zizhiyin" unicode="&#59036;" d="M552.091099 709.815114m65.555302-123.291591l174.814138-328.777577q65.555302-123.291591-57.736289-188.846893l-328.777576-174.814138q-123.291591-65.555302-188.846893 57.736289l-174.814139 328.777577q-65.555302 123.291591 57.73629 188.846893l328.777576 174.814138q123.291591 65.555302 188.846893-57.736289ZM398.801455-8.471273l-44.730182 121.204364a24.343273 24.343273 0 0 1-29.044364 15.034182l-117.108364-30.114909 147.176728 265.216a329.541818 329.541818 0 0 1 191.534545-104.913455l-147.828363-266.426182zM869.655273 127.767273a24.436364 24.436364 0 0 1-29.044364-15.034182l-44.730182-121.204364-147.269818 265.355637a329.541818 329.541818 0 0 1 193.722182 101.050181l144.430545-260.282181-117.108363 30.114909zM600.529455 851.456a313.437091 313.437091 0 0 0 313.111272-313.111273 313.437091 313.437091 0 0 0-313.111272-313.064727 313.437091 313.437091 0 0 0-313.064728 313.064727 313.437091 313.437091 0 0 0 313.064728 313.111273zM613.841455 440.971636l-94.068364-43.845818 12.660364 102.958546-70.749091 75.869091 101.841454 19.828363 50.269091 90.763637 50.315636-90.763637 101.888-19.781818-70.795636-75.869091 12.660364-103.005091z"  horiz-adv-x="1024" />

    
    <glyph glyph-name="zhengzhaoyang" unicode="&#59037;" d="M404.969739-76.354783L39.713391 466.67687a89.043478 89.043478 0 0 0 66.114783 138.373565l630.694956 55.206956A89.043478 89.043478 0 0 0 825.655652 535.373913l-265.394087-598.194087a89.043478 89.043478 0 0 0-155.291826-13.57913zM964.162783 810.25113H460.53287A104.358957 104.358957 0 0 1 356.173913 705.892174v-342.461217a104.358957 104.358957 0 0 1 104.358957-104.358957h503.629913A104.358957 104.358957 0 0 1 1068.521739 363.430957V705.892174a104.358957 104.358957 0 0 1-104.358956 104.358956zM919.641043 854.77287H416.01113A104.358957 104.358957 0 0 1 311.652174 750.413913v-342.461217a104.358957 104.358957 0 0 1 104.358956-104.358957h503.629913A104.358957 104.358957 0 0 1 1024 407.952696V750.413913A104.358957 104.358957 0 0 1 919.641043 854.77287zM809.405217 698.234435c29.918609 0 54.316522-24.397913 54.316522-54.316522 0-29.96313-24.397913-54.316522-54.316522-54.316522-29.96313 0-54.316522 24.353391-54.316521 54.316522 0 29.918609 24.353391 54.316522 54.316521 54.316522z m0 48.662261a103.023304 103.023304 0 1 1 0-206.002087 103.023304 103.023304 0 0 1 0 206.002087zM912.384 440.097391a24.353391 24.353391 0 0 0-24.353391 24.353392c0 43.364174-35.261217 78.669913-78.625392 78.669913-43.408696 0-78.669913-35.305739-78.669913-78.669913a24.353391 24.353391 0 1 0-48.706782 0 127.510261 127.510261 0 0 0 127.332174 127.332174 127.510261 127.510261 0 0 0 127.376695-127.332174 24.353391 24.353391 0 0 0-24.353391-24.353392z m-282.490435 218.334609H412.850087a24.353391 24.353391 0 1 0 0 48.706783h217.043478a24.353391 24.353391 0 1 0 0-48.706783z m0-104.670609H412.850087a24.353391 24.353391 0 1 0 0 48.662261h217.043478a24.353391 24.353391 0 1 0 0-48.662261z m-64.690087-104.71513H412.850087a24.353391 24.353391 0 1 0 0 48.706782h152.353391a24.353391 24.353391 0 1 0 0-48.706782z"  horiz-adv-x="1068" />

    
    <glyph glyph-name="zhengzhaocopy" unicode="&#59038;" d="M404.969739-76.354783L39.713391 466.67687a89.043478 89.043478 0 0 0 66.114783 138.373565l630.694956 55.206956A89.043478 89.043478 0 0 0 825.655652 535.373913l-265.394087-598.194087a89.043478 89.043478 0 0 0-155.291826-13.57913zM964.162783 810.25113H460.53287A104.358957 104.358957 0 0 1 356.173913 705.892174v-342.461217a104.358957 104.358957 0 0 1 104.358957-104.358957h503.629913A104.358957 104.358957 0 0 1 1068.521739 363.430957V705.892174a104.358957 104.358957 0 0 1-104.358956 104.358956zM919.641043 854.77287H416.01113A104.358957 104.358957 0 0 1 311.652174 750.413913v-342.461217a104.358957 104.358957 0 0 1 104.358956-104.358957h503.629913A104.358957 104.358957 0 0 1 1024 407.952696V750.413913A104.358957 104.358957 0 0 1 919.641043 854.77287zM809.405217 698.234435c29.918609 0 54.316522-24.397913 54.316522-54.316522 0-29.96313-24.397913-54.316522-54.316522-54.316522-29.96313 0-54.316522 24.353391-54.316521 54.316522 0 29.918609 24.353391 54.316522 54.316521 54.316522z m0 48.662261a103.023304 103.023304 0 1 1 0-206.002087 103.023304 103.023304 0 0 1 0 206.002087zM912.384 440.097391a24.353391 24.353391 0 0 0-24.353391 24.353392c0 43.364174-35.261217 78.669913-78.625392 78.669913-43.408696 0-78.669913-35.305739-78.669913-78.669913a24.353391 24.353391 0 1 0-48.706782 0 127.510261 127.510261 0 0 0 127.332174 127.332174 127.510261 127.510261 0 0 0 127.376695-127.332174 24.353391 24.353391 0 0 0-24.353391-24.353392z m-282.490435 218.334609H412.850087a24.353391 24.353391 0 1 0 0 48.706783h217.043478a24.353391 24.353391 0 1 0 0-48.706783z m0-104.670609H412.850087a24.353391 24.353391 0 1 0 0 48.662261h217.043478a24.353391 24.353391 0 1 0 0-48.662261z m-64.690087-104.71513H412.850087a24.353391 24.353391 0 1 0 0 48.706782h152.353391a24.353391 24.353391 0 1 0 0-48.706782z"  horiz-adv-x="1068" />

    
    <glyph glyph-name="gerenxinxixinyongyin" unicode="&#59039;" d="M112.747789 465.003789l613.861053 275.833264a107.789474 107.789474 0 0 0 151.552-107.681685l-57.23621-654.120421a107.789474 107.789474 0 0 0-167.936-79.76421L96.363789 277.611789a107.789474 107.789474 0 0 0 16.384 187.445895zM1163.479579 254.814316h-599.848421a76.907789 76.907789 0 0 0-76.90779 76.907789V666.408421h753.664v-334.632421c0-42.469053-34.438737-76.907789-76.907789-76.907789zM963.530105 454.763789l-30.72-107.627789h184.535579l30.773895 107.627789zM486.723368 808.528842c0 42.469053 34.492632 76.907789 76.90779 76.90779h599.848421c42.469053 0 76.907789-34.438737 76.907789-76.90779V731.621053H486.723368V808.528842z"  horiz-adv-x="1293" />

    
    <glyph glyph-name="gerenxinxixiaofeiyin" unicode="&#59040;" d="M578.381152 749.711072m68.676982-129.16262l183.138622-344.433651q68.676983-129.162619-60.485637-197.839602l-344.433651-183.138621q-129.162619-68.676983-197.839602 60.485636l-183.138622 344.433652q-68.676983 129.162619 60.485637 197.839602l344.433651 183.138621q129.162619 68.676983 197.839602-60.485637ZM960.804571 497.712762l-59.343238 50.858667L972.214857 877.616762C974.409143 887.710476 966.753524 896 955.099429 896h-414.96381c-11.654095 0-22.918095-8.240762-25.063619-18.383238l-73.191619-340.358095a14.140952 14.140952 0 0 1 4.87619-14.433524 30.378667 30.378667 0 0 1 7.021715-8.728381l58.953143-50.468572-70.851048-329.435428c-2.194286-10.142476 5.461333-18.383238 17.115429-18.383238h414.963809c11.654095 0 22.918095 8.240762 25.063619 18.383238l73.191619 340.358095a14.140952 14.140952 0 0 1-3.900952 13.604572 30.378667 30.378667 0 0 1-7.509334 9.557333zM596.406857 732.94019h231.033905l10.971428 62.415239h-230.985142zM567.588571 620.202667h146.285715l10.971428 62.415238h-146.285714zM841.48419 389.656381h-240.15238l-11.020191-62.415238h240.152381zM713.874286 219.818667l10.971428 62.415238h-146.285714l-11.02019-62.415238zM558.811429 491.76381a33.401905 33.401905 0 0 1-4.876191 5.168761l-26.965333 23.113143h328.850285c1.462857-1.950476 3.072-3.657143 4.876191-5.217524l26.916571-23.06438H558.811429zM557.884952 844.604952h357.327238l-59.001904-274.334476H498.834286zM621.32419 812.324571h41.545143L707.047619 724.260571l44.178286 88.064h41.545143l-56.173715-101.814857h37.449143V691.2h-48.274286l-0.292571-0.292571v-24.283429h48.566857V647.314286h-48.566857V603.428571h-36.864v43.885715h-48.274286v19.309714h48.274286v24.283429l-0.292571 0.292571h-47.981715v19.309714h37.156572z"  horiz-adv-x="1024" />

    
    <glyph glyph-name="zizhiyang" unicode="&#59041;" d="M552.091099 709.815114m65.555302-123.291591l174.814138-328.777577q65.555302-123.291591-57.736289-188.846893l-328.777576-174.814138q-123.291591-65.555302-188.846893 57.736289l-174.814139 328.777577q-65.555302 123.291591 57.73629 188.846893l328.777576 174.814138q123.291591 65.555302 188.846893-57.736289ZM398.801455-8.471273l-44.730182 121.204364a24.343273 24.343273 0 0 1-29.044364 15.034182l-117.108364-30.114909 147.176728 265.216a329.541818 329.541818 0 0 1 191.534545-104.913455l-147.828363-266.426182zM869.655273 127.767273a24.436364 24.436364 0 0 1-29.044364-15.034182l-44.730182-121.204364-147.269818 265.355637a329.541818 329.541818 0 0 1 193.722182 101.050181l144.430545-260.282181-117.108363 30.114909zM600.529455 851.456a313.437091 313.437091 0 0 0 313.111272-313.111273 313.437091 313.437091 0 0 0-313.111272-313.064727 313.437091 313.437091 0 0 0-313.064728 313.064727 313.437091 313.437091 0 0 0 313.064728 313.111273zM613.841455 440.971636l-94.068364-43.845818 12.660364 102.958546-70.749091 75.869091 101.841454 19.828363 50.269091 90.763637 50.315636-90.763637 101.888-19.781818-70.795636-75.869091 12.660364-103.005091z"  horiz-adv-x="1024" />

    
    <glyph glyph-name="gerenxinxihangweiyin" unicode="&#59042;" d="M385.1745 624.843612C136.358771 562.774262 88.070647 416.887065 46.511638 153.051954c-41.55901-263.888944 283.699457-318.690851 520.941108-259.474645 237.241652 59.10854 367.62497 168.712352 312.661565 389.050469-54.909572 220.338117-246.177916 404.231351-494.939811 342.215834zM924.095802 85.330148H500.915265c-16.25754-0.538329-29.069774-11.681742-29.069774-25.301469 0-13.67356 12.812234-24.816973 29.069774-25.355303h423.126704c16.25754 0.538329 29.069774 11.681742 29.069773 25.30147 0 13.67356-12.812234 24.870806-29.069773 25.355302zM999.246549 896H400.409214c-34.776062 0-68.152469-13.727393-92.807943-38.221369A130.275652 130.275652 0 0 1 269.16457 765.401351v-473.460479a130.97548 130.97548 0 0 1 131.35231-130.598649h598.729669A130.921647 130.921647 0 0 1 1130.491194 291.940872V765.186019a130.275652 130.275652 0 0 1-38.382868 92.484946A131.567642 131.567642 0 0 1 999.246549 896zM619.61684 440.304383a14.211889 14.211889 0 0 0 0-20.187343l-51.948762-51.948762a14.211889 14.211889 0 0 0-20.13351 0L475.990626 439.712221a14.211889 14.211889 0 0 0 0 20.13351l51.948762 52.002595a14.319555 14.319555 0 0 0 20.187342 0l71.543943-71.543943z m206.072395 227.713226a50.279942 50.279942 0 0 0-49.849279 50.656772 50.656772 50.656772 0 1 0 49.849279-50.656772z m74.612419-118.001747l-0.215332-0.053833c12.38157-10.766583 42.904832-5.867788 49.526281-15.073216 15.019383-21.856163-21.102502-34.291566-42.474169-28.63911-21.317834 5.652456-53.133086 23.148153-66.375983 50.495273 0 0-21.586999-39.728691-21.586999-68.959963 0-29.231272 39.298027-59.539203 59.916033-85.594333 20.618006-26.001297 16.096041-91.946617 16.096042-114.664107 0-13.727393-11.358745-25.732133-22.555991-24.76314-7.21361 0.538329-14.534887 4.575798-18.84152 24.76314-10.658917 51.033602 0.538329 79.026718-34.829895 109.388481-35.368224 30.307931-40.805349 38.921197-45.058149 38.921197-4.198967 0-5.760122-42.689501-14.534887-65.40699-8.667099-22.71749-82.795022-93.938435-98.83723-96.360916-15.988375-2.314815-41.612843 4.737296-6.352284 46.996134 35.314392 42.258837 55.6094 38.167536 60.992691 92.269614 1.884152 19.918178 17.441864 95.822587 23.471151 110.195975 9.689925 22.71749 6.45995 62.823011 6.45995 62.823011s-60.292864-21.156335-72.889766-40.051688c-17.065034-25.462968-35.09906-47.695962-53.133086-53.079253-4.521965-1.29199-14.373388-5.329458-20.13351 5.975453-5.760122 11.304912 43.819992 70.951781 61.854018 87.155488 0 0 81.987528 56.309228 108.742486 56.309228 26.701125 0 71.113279-7.105945 84.356177-35.314392 8.182603-17.280365 26.916457-40.26702 46.403972-57.332053z"  horiz-adv-x="1131" />

    
    <glyph glyph-name="yiliaoyin" unicode="&#59043;" d="M26.624 8.515368L232.663579 773.443368a107.789474 107.789474 0 0 0 178.930526 49.529264l551.289263-532.372211a107.789474 107.789474 0 0 0-43.223579-180.547368L162.384842-122.610526a107.789474 107.789474 0 0 0-135.760842 131.072zM646.736842 842.105263m53.894737 0l161.68421 0q53.894737 0 53.894737-53.894737l0-53.894737q0-53.894737-53.894737-53.894736l-161.68421 0q-53.894737 0-53.894737 53.894736l0 53.894737q0 53.894737 53.894737 53.894737ZM431.157895 734.315789m107.789473 0l485.052632 0q107.789474 0 107.789474-107.789473l0-377.263158q0-107.789474-107.789474-107.789474l-485.052632 0q-107.789474 0-107.789473 107.789474l0 377.263158q0 107.789474 107.789473 107.789473ZM888.778105 493.837474h-51.361684v51.415579A27.486316 27.486316 0 0 1 810.037895 572.631579H752.909474a27.486316 27.486316 0 0 1-27.378527-27.378526v-51.415579h-51.361684A27.486316 27.486316 0 0 1 646.736842 466.458947v-57.128421c0-15.090526 12.341895-27.378526 27.432421-27.378526h51.361684v-51.415579c0-15.090526 12.341895-27.378526 27.378527-27.378526h57.128421a27.486316 27.486316 0 0 1 27.378526 27.378526v51.415579h51.361684A27.486316 27.486316 0 0 1 916.210526 409.330526V466.458947a27.486316 27.486316 0 0 1-27.432421 27.378527z"  horiz-adv-x="1131" />

    
    <glyph glyph-name="zichanyang" unicode="&#59044;" d="M407.04 781.696C111.36 707.84 53.888 534.4 4.48 220.8c-49.408-313.728 337.28-378.88 619.328-308.48 282.048 70.272 436.992 200.576 371.712 462.528C930.24 636.8 702.848 855.424 407.04 781.696zM1333.056 398.656l-0.128 2.048-0.128 3.52-0.064 2.56a107.52 107.52 0 0 1-0.768 8.64l-0.192 3.2-0.256 1.92c-3.648 32.64-39.872 74.432-108.48 125.248-63.616 45.12-110.4 71.936-140.352 80.384-9.28 65.536-49.024 125.888-112.832 170.624C904.448 842.752 819.456 868.096 730.368 868.096S556.288 842.752 490.816 796.8c-63.616-44.608-103.552-105.088-112.832-170.496a237.824 237.824 0 0 1-115.776-73.728 243.2 243.2 0 0 1-57.856-132.288l-0.256-1.92-0.192-3.072-0.704-8.704-0.128-2.56-0.128-3.456-0.128-1.92v-122.432c0-4.992 0.64-9.984 1.664-14.72a59.328 59.328 0 0 1 11.072-24.832c12.096-16.96 31.872-28.032 54.08-28.032h53.184c62.976 0 233.408-0.192 298.624-0.128h219.52l298.56-0.064h126.592c22.4 0 42.112 11.136 54.272 28.224a58.88 58.88 0 0 1 10.88 24.576 63.232 63.232 0 0 1 1.792 14.848V398.72zM881.024 257.28a152.576 152.576 0 0 0 148.672 146.752 152.832 152.832 0 0 0 152.448-152.512c0-3.008 0-5.76-0.256-8.768a171.52 171.52 0 0 1-6.272-21.312 153.344 153.344 0 0 0-147.52-121.472 153.088 153.088 0 0 0-147.072 157.376zM1003.072 634.944h-236.48V789.312c58.24-5.44 113.408-24.064 156.352-53.056 40.704-27.52 68.8-63.168 80.128-101.312zM536.448 735.424c42.24 28.864 96.64 47.616 154.048 53.568V634.88h-232.96c11.072 37.76 38.848 73.024 78.912 100.48zM353.92 257.28a152.64 152.64 0 0 0 148.864 146.752c40.704-0.256 79.168-16 107.776-44.928a149.76 149.76 0 0 0 44.48-107.52c0-3.072 0-5.824-0.192-8.832-2.56-6.976-4.672-14.08-6.336-21.312a153.408 153.408 0 0 0-147.584-121.472A152.96 152.96 0 0 0 353.92 257.344z"  horiz-adv-x="1344" />

    
    <glyph glyph-name="tianjia" unicode="&#59045;" d="M938.154667 566.613333v-608.682666H85.845333V810.069333h724.48V896H64.341333A64.512 64.512 0 0 1 0 831.573333v-895.146666c0-35.498667 28.842667-64.426667 64.341333-64.426667h895.317334a64.512 64.512 0 0 1 64.341333 64.426667V566.698667h-85.845333zM809.984 349.866667a49.664 49.664 0 0 1 0 70.656 49.493333 49.493333 0 0 1-35.242667 14.592H560.469333V649.728a49.749333 49.749333 0 0 1-85.162666 35.328 49.664 49.664 0 0 1-14.592-35.328V435.2H246.186667a49.664 49.664 0 0 1-49.834667-49.92 49.749333 49.749333 0 0 1 49.834667-49.92h214.357333v-214.613333a50.090667 50.090667 0 0 1 85.333333-35.413334 49.664 49.664 0 0 1 14.506667 35.328V335.189333H774.826667a49.152 49.152 0 0 1 35.157333 14.677334z"  horiz-adv-x="1024" />

    


  </font>
</defs>
</svg>
